<svg width="30" height="30" viewBox="0 0 30 30" fill="none" xmlns="http://www.w3.org/2000/svg">
<path d="M1.875 16.875C2.91053 16.875 3.75 16.0355 3.75 15C3.75 13.9645 2.91053 13.125 1.875 13.125C0.839466 13.125 0 13.9645 0 15C0 16.0355 0.839466 16.875 1.875 16.875Z" fill="white"/>
<path d="M5.37211 9.3762C5.88987 8.4794 5.58261 7.33267 4.68581 6.8149C3.78901 6.29714 2.64228 6.6044 2.12451 7.5012C1.60674 8.398 1.91401 9.54473 2.81081 10.0625C3.70761 10.5803 4.85434 10.273 5.37211 9.3762Z" fill="white"/>
<path d="M9.37331 5.3765C10.2701 4.85873 10.5774 3.712 10.0596 2.8152C9.54184 1.91841 8.39511 1.61114 7.49831 2.12891C6.60151 2.64667 6.29424 3.79341 6.81201 4.6902C7.32978 5.587 8.47651 5.89427 9.37331 5.3765Z" fill="white"/>
<path d="M10.0596 27.1848C10.5774 26.288 10.2701 25.1413 9.37331 24.6235C8.47651 24.1057 7.32978 24.413 6.81201 25.3098C6.29424 26.2066 6.60151 27.3533 7.49831 27.8711C8.39511 28.3889 9.54184 28.0816 10.0596 27.1848Z" fill="white"/>
<path d="M4.69069 23.1851C5.58749 22.6673 5.89476 21.5206 5.37699 20.6238C4.85922 19.727 3.71249 19.4197 2.81569 19.9375C1.91889 20.4553 1.61163 21.602 2.12939 22.4988C2.64716 23.3956 3.79389 23.7029 4.69069 23.1851Z" fill="white"/>
<path d="M15 0V3.75C17.9837 3.75 20.8452 4.93526 22.955 7.04505C25.0647 9.15483 26.25 12.0163 26.25 15C26.25 17.9837 25.0647 20.8452 22.955 22.955C20.8452 25.0647 17.9837 26.25 15 26.25V30C18.9782 30 22.7936 28.4196 25.6066 25.6066C28.4196 22.7936 30 18.9782 30 15C30 11.0218 28.4196 7.20644 25.6066 4.3934C22.7936 1.58035 18.9782 0 15 0Z" fill="white"/>
<path d="M19.7671 9.92383L13.5937 16.0973L10.2327 12.7363L7.57959 15.3895L12.2671 20.077C12.4412 20.2513 12.648 20.3896 12.8756 20.4839C13.1033 20.5783 13.3472 20.6269 13.5937 20.6269C13.8401 20.6269 14.084 20.5783 14.3117 20.4839C14.5393 20.3896 14.7461 20.2513 14.9202 20.077L22.4202 12.577L19.7671 9.92383Z" fill="white"/>
</svg>
