<svg width="15" height="18" viewBox="0 0 15 18" fill="none" xmlns="http://www.w3.org/2000/svg">
<path d="M7.76865 0C8.59245 0.24548 9.26425 0.670048 9.6329 1.49385C9.67483 1.5882 9.89236 1.6476 10.0286 1.64935C11.0333 1.66245 12.0379 1.65284 13.0425 1.65721C14.0271 1.66158 14.7417 2.32988 14.7443 3.31267C14.7565 7.65095 14.7557 11.9901 14.7452 16.3284C14.7426 17.3234 14.0192 17.9978 13.0102 17.9987C9.25376 18.0004 5.4973 18.0004 1.74171 17.9987C0.689905 17.9978 0.00587939 17.3129 0.0032586 16.2445C-0.00285657 13.9732 0.00151141 11.7018 0.00151141 9.43046C0.00151141 7.45002 0.000637815 5.47046 0.00151141 3.49001C0.00238501 2.31415 0.66195 1.65721 1.83956 1.65546C2.80051 1.65459 3.76147 1.66158 4.72242 1.64847C4.8587 1.64673 5.07361 1.58558 5.11554 1.49035C5.48158 0.663059 6.16123 0.246354 6.98241 0C7.24449 0 7.50657 0 7.76865 0ZM13.074 16.3817C13.074 11.984 13.074 7.63872 13.074 3.28122C12.5306 3.28122 12.0152 3.28122 11.4491 3.28122C11.4491 4.10066 11.4491 4.89214 11.4491 5.69322C8.71213 5.69322 6.02757 5.69322 3.2906 5.69322C3.2906 4.87903 3.2906 4.08755 3.2906 3.2786C2.72276 3.2786 2.20647 3.2786 1.68406 3.2786C1.68406 7.66056 1.68406 12.0163 1.68406 16.3817C5.49381 16.3817 9.27123 16.3817 13.074 16.3817ZM8.2037 2.47839C8.21244 2.02587 7.84116 1.6511 7.38165 1.64847C6.93699 1.64585 6.56746 1.98743 6.54824 2.41986C6.52814 2.86365 6.90029 3.26987 7.34583 3.28996C7.77826 3.30918 8.19584 2.91431 8.2037 2.47839Z" fill="white"/>
<path d="M10.4497 13.8367C9.99283 14.3364 9.62243 14.7426 9.2363 15.1654C8.93927 14.8509 8.67195 14.5696 8.37493 14.2543C8.76019 13.8987 9.1533 13.5353 9.56389 13.157C9.11923 12.7482 8.71738 12.3787 8.2832 11.9794C8.66234 11.6422 8.9515 11.3845 9.25551 11.1146C9.59534 11.4762 9.97012 11.8755 10.3929 12.3254C10.842 11.8589 11.2194 11.4649 11.5863 11.084C11.8833 11.3836 12.1559 11.6588 12.4634 11.9689C12.0921 12.3123 11.699 12.6757 11.2779 13.0653C11.726 13.4619 12.1366 13.8245 12.5691 14.2071C12.1925 14.567 11.9112 14.8352 11.5898 15.1427C11.2377 14.7391 10.8769 14.3259 10.4497 13.8367Z" fill="white"/>
<path d="M3.32031 9.77427C3.32031 9.25448 3.32031 8.76439 3.32031 8.24023C4.6473 8.24023 5.97255 8.24023 7.32487 8.24023C7.32487 8.74605 7.32487 9.24487 7.32487 9.77427C5.99788 9.77427 4.68312 9.77427 3.32031 9.77427Z" fill="white"/>
<path d="M7.32467 13.8899C5.97497 13.8899 4.67156 13.8899 3.33496 13.8899C3.33496 13.378 3.33496 12.8783 3.33496 12.3428C4.64885 12.3428 5.97322 12.3428 7.32467 12.3428C7.32467 12.8495 7.32467 13.3483 7.32467 13.8899Z" fill="white"/>
<path d="M11.5089 7.28125C11.8225 7.59574 12.0864 7.86132 12.3607 8.1365C11.4975 8.96642 10.6292 9.8007 9.78443 10.6131C9.30308 10.1283 8.7431 9.56658 8.1543 8.97428C8.39541 8.77073 8.68894 8.52263 9.06633 8.20464C9.24891 8.4475 9.48304 8.76112 9.73725 9.0992C10.382 8.43614 10.9384 7.86656 11.5089 7.28125Z" fill="white"/>
</svg>
