<svg width="24" height="31" viewBox="0 0 24 31" fill="none" xmlns="http://www.w3.org/2000/svg">
<g clip-path="url(#clip0_3405_4263)">
<path d="M4.70079 24.9184H15.3334C15.6574 24.9184 15.9253 24.6638 15.9253 24.3557C15.9253 24.0476 15.6574 23.793 15.3334 23.793H4.70079C4.37675 23.793 4.10889 24.0476 4.10889 24.3557C4.10889 24.6638 4.37675 24.9184 4.70079 24.9184Z" fill="#5F6383"/>
<path d="M19.2736 26.918H4.70079C4.37675 26.918 4.10889 27.1726 4.10889 27.4807C4.10889 27.7888 4.37675 28.0434 4.70079 28.0434H19.2736C19.5976 28.0434 19.8655 27.7888 19.8655 27.4807C19.8655 27.1726 19.5976 26.918 19.2736 26.918Z" fill="#5F6383"/>
<path d="M19.2736 20.668H4.70079C4.37675 20.668 4.10889 20.9226 4.10889 21.2307C4.10889 21.5388 4.37675 21.7934 4.70079 21.7934H19.2736C19.5976 21.7934 19.8655 21.5388 19.8655 21.2307C19.8655 20.9226 19.5976 20.668 19.2736 20.668Z" fill="#5F6383"/>
<path d="M23.9741 27.7427V4.81821C23.9741 4.67033 23.9136 4.52657 23.8013 4.41977L19.3339 0.176626C19.2216 0.0698291 19.0704 0.0123228 18.9192 0.0123228H3.68101V0H2.50153V0.0123228H0.591899C0.267867 0.0123228 0 0.262886 0 0.570955V30.4373C0 30.7453 0.267867 31 0.591899 31H23.3822C23.7062 31 23.9741 30.7453 23.9741 30.4373V28.8682H24.0043V27.7468H23.9741V27.7427ZM19.5068 1.93057L21.9521 4.25547H19.5068V1.93057ZM22.7903 29.8745H1.17948V1.1337H18.323V4.8141C18.323 5.12217 18.5908 5.37684 18.9149 5.37684H22.786V29.8745H22.7903Z" fill="#5F6383"/>
<path d="M4.70079 18.6684H15.3334C15.6574 18.6684 15.9253 18.4138 15.9253 18.1057C15.9253 17.7976 15.6574 17.543 15.3334 17.543H4.70079C4.37675 17.543 4.10889 17.7976 4.10889 18.1057C4.10889 18.4138 4.37675 18.6684 4.70079 18.6684Z" fill="#5F6383"/>
<path d="M4.10889 7.26587V11.3447C4.10889 11.6528 4.37675 11.9074 4.70079 11.9074H19.2736C19.5976 11.9074 19.8655 11.6528 19.8655 11.3447V7.26587C19.8655 6.9578 19.5976 6.70312 19.2736 6.70312H4.70079C4.37675 6.70312 4.10889 6.9578 4.10889 7.26587ZM5.29269 7.82861H18.6817V10.7861H5.29269V7.82861Z" fill="#5F6383"/>
<path d="M19.2736 14.418H4.70079C4.37675 14.418 4.10889 14.6726 4.10889 14.9807C4.10889 15.2888 4.37675 15.5434 4.70079 15.5434H19.2736C19.5976 15.5434 19.8655 15.2888 19.8655 14.9807C19.8612 14.6726 19.5976 14.418 19.2736 14.418Z" fill="#5F6383"/>
</g>
<defs>
<clipPath id="clip0_3405_4263">
<rect width="24" height="31" fill="white"/>
</clipPath>
</defs>
</svg>
