<svg width="18" height="17" viewBox="0 0 18 17" fill="none" xmlns="http://www.w3.org/2000/svg">
<path d="M15.6858 1.34666H13.9598V0.739716C13.9598 0.32244 13.6373 0 13.22 0C12.8028 0 12.4803 0.32244 12.4803 0.739716V1.34666H5.53838V0.739716C5.53838 0.32244 5.21594 0 4.79867 0C4.38139 0 4.05895 0.32244 4.05895 0.739716V1.34666H2.33295C1.04319 1.34666 0 2.38985 0 3.67961V14.1305C0 15.4202 1.04319 16.4634 2.33295 16.4634H15.6668C16.9566 16.4634 17.9997 15.4202 17.9997 14.1305V3.67961C18.0187 2.38985 16.9755 1.34666 15.6858 1.34666ZM2.33295 2.82609H15.6668C16.141 2.82609 16.5203 3.20543 16.5203 3.67961V4.30552H1.47943V3.67961C1.47943 3.20543 1.85877 2.82609 2.33295 2.82609ZM15.6858 14.984H2.33295C1.85877 14.984 1.47943 14.6046 1.47943 14.1305V5.78495H16.5393V14.1305C16.5393 14.6046 16.1599 14.984 15.6858 14.984Z" fill="white"/>
<path d="M5.36774 7.41602H3.6607C3.39516 7.41602 3.18652 7.62465 3.18652 7.89019V9.02822C3.18652 9.29376 3.39516 9.50239 3.6607 9.50239H5.36774C5.63327 9.50239 5.84191 9.29376 5.84191 9.02822V7.89019C5.84191 7.62465 5.63327 7.41602 5.36774 7.41602Z" fill="white"/>
<path d="M9.86285 7.41602H8.15582C7.89028 7.41602 7.68164 7.62465 7.68164 7.89019V9.02822C7.68164 9.29376 7.89028 9.50239 8.15582 9.50239H9.86285C10.1284 9.50239 10.337 9.29376 10.337 9.02822V7.89019C10.337 7.62465 10.1284 7.41602 9.86285 7.41602Z" fill="white"/>
<path d="M14.358 7.41602H12.6509C12.3854 7.41602 12.1768 7.62465 12.1768 7.89019V9.02822C12.1768 9.29376 12.3854 9.50239 12.6509 9.50239H14.358C14.6235 9.50239 14.8321 9.29376 14.8321 9.02822V7.89019C14.8321 7.62465 14.6235 7.41602 14.358 7.41602Z" fill="white"/>
<path d="M5.36774 11.3418H3.6607C3.39516 11.3418 3.18652 11.5504 3.18652 11.816V12.954C3.18652 13.2195 3.39516 13.4282 3.6607 13.4282H5.36774C5.63327 13.4282 5.84191 13.2195 5.84191 12.954V11.816C5.84191 11.5504 5.63327 11.3418 5.36774 11.3418Z" fill="white"/>
<path d="M9.86285 11.3418H8.15582C7.89028 11.3418 7.68164 11.5504 7.68164 11.816V12.954C7.68164 13.2195 7.89028 13.4282 8.15582 13.4282H9.86285C10.1284 13.4282 10.337 13.2195 10.337 12.954V11.816C10.337 11.5504 10.1284 11.3418 9.86285 11.3418Z" fill="white"/>
<path d="M14.358 11.3418H12.6509C12.3854 11.3418 12.1768 11.5504 12.1768 11.816V12.954C12.1768 13.2195 12.3854 13.4282 12.6509 13.4282H14.358C14.6235 13.4282 14.8321 13.2195 14.8321 12.954V11.816C14.8321 11.5504 14.6235 11.3418 14.358 11.3418Z" fill="white"/>
</svg>
