<svg width="32" height="32" viewBox="0 0 32 32" fill="none" xmlns="http://www.w3.org/2000/svg">
<rect width="32" height="32" rx="16" fill="#F56D3B"/>
<path d="M20.7143 10.8571H20.2857V10.4286C20.2857 10.1918 20.0939 10 19.8571 10C19.6204 10 19.4286 10.1918 19.4286 10.4286V10.8571H16.4286V10.4286C16.4286 10.1918 16.2368 10 16 10C15.7632 10 15.5714 10.1918 15.5714 10.4286V10.8571H12.5714V10.4286C12.5714 10.1918 12.3796 10 12.1429 10C11.9061 10 11.7143 10.1918 11.7143 10.4286V10.8571H11.2857C10.5759 10.8571 10 11.433 10 12.1429V20.7143C10 21.4241 10.5759 22 11.2857 22H20.7143C21.4241 22 22 21.4241 22 20.7143V12.1429C22 11.433 21.4241 10.8571 20.7143 10.8571ZM11.2857 11.7143H11.7143V12.1429C11.7143 12.3796 11.9061 12.5714 12.1429 12.5714C12.3796 12.5714 12.5714 12.3796 12.5714 12.1429V11.7143H15.5714V12.1429C15.5714 12.3796 15.7632 12.5714 16 12.5714C16.2368 12.5714 16.4286 12.3796 16.4286 12.1429V11.7143H19.4286V12.1429C19.4286 12.3796 19.6204 12.5714 19.8571 12.5714C20.0939 12.5714 20.2857 12.3796 20.2857 12.1429V11.7143H20.7143C20.8279 11.7143 20.9371 11.7593 21.0175 11.8396C21.0979 11.92 21.1429 12.0293 21.1429 12.1429V13.4286H10.8571V12.1429C10.8571 11.9061 11.0489 11.7143 11.2857 11.7143ZM20.7143 21.1429H11.2857C11.0489 21.1429 10.8571 20.9511 10.8571 20.7143V14.2857H21.1429V20.7143C21.1429 20.8279 21.0979 20.9371 21.0175 21.0175C20.9371 21.0979 20.8279 21.1429 20.7143 21.1429ZM13.4286 15.5714C13.4286 15.685 13.3836 15.7943 13.3032 15.8746C13.2229 15.955 13.1136 16 13 16H12.5714C12.3346 16 12.1429 15.8082 12.1429 15.5714C12.1429 15.3346 12.3346 15.1429 12.5714 15.1429H13C13.1136 15.1429 13.2229 15.1879 13.3032 15.2682C13.3836 15.3486 13.4286 15.4579 13.4286 15.5714ZM15.5714 15.5714C15.5714 15.685 15.5264 15.7943 15.4461 15.8746C15.3657 15.955 15.2564 16 15.1429 16H14.7143C14.4775 16 14.2857 15.8082 14.2857 15.5714C14.2857 15.3346 14.4775 15.1429 14.7143 15.1429H15.1429C15.2564 15.1429 15.3657 15.1879 15.4461 15.2682C15.5264 15.3486 15.5714 15.4579 15.5714 15.5714ZM17.7143 15.5714C17.7143 15.685 17.6693 15.7943 17.5889 15.8746C17.5086 15.955 17.3993 16 17.2857 16H16.8571C16.6204 16 16.4286 15.8082 16.4286 15.5714C16.4286 15.3346 16.6204 15.1429 16.8571 15.1429H17.2857C17.3993 15.1429 17.5086 15.1879 17.5889 15.2682C17.6693 15.3486 17.7143 15.4579 17.7143 15.5714ZM19.8571 15.5714C19.8571 15.685 19.8121 15.7943 19.7318 15.8746C19.6514 15.955 19.5421 16 19.4286 16H19C18.7632 16 18.5714 15.8082 18.5714 15.5714C18.5714 15.3346 18.7632 15.1429 19 15.1429H19.4286C19.5421 15.1429 19.6514 15.1879 19.7318 15.2682C19.8121 15.3486 19.8571 15.4579 19.8571 15.5714ZM13.4286 17.7143C13.4286 17.8279 13.3836 17.9371 13.3032 18.0175C13.2229 18.0979 13.1136 18.1429 13 18.1429H12.5714C12.3346 18.1429 12.1429 17.9511 12.1429 17.7143C12.1429 17.4775 12.3346 17.2857 12.5714 17.2857H13C13.1136 17.2857 13.2229 17.3307 13.3032 17.4111C13.3836 17.4914 13.4286 17.6007 13.4286 17.7143ZM15.5714 17.7143C15.5714 17.8279 15.5264 17.9371 15.4461 18.0175C15.3657 18.0979 15.2564 18.1429 15.1429 18.1429H14.7143C14.4775 18.1429 14.2857 17.9511 14.2857 17.7143C14.2857 17.4775 14.4775 17.2857 14.7143 17.2857H15.1429C15.2564 17.2857 15.3657 17.3307 15.4461 17.4111C15.5264 17.4914 15.5714 17.6007 15.5714 17.7143ZM17.7143 17.7143C17.7143 17.8279 17.6693 17.9371 17.5889 18.0175C17.5086 18.0979 17.3993 18.1429 17.2857 18.1429H16.8571C16.6204 18.1429 16.4286 17.9511 16.4286 17.7143C16.4286 17.4775 16.6204 17.2857 16.8571 17.2857H17.2857C17.3993 17.2857 17.5086 17.3307 17.5889 17.4111C17.6693 17.4914 17.7143 17.6007 17.7143 17.7143ZM19.8571 17.7143C19.8571 17.8279 19.8121 17.9371 19.7318 18.0175C19.6514 18.0979 19.5421 18.1429 19.4286 18.1429H19C18.7632 18.1429 18.5714 17.9511 18.5714 17.7143C18.5714 17.4775 18.7632 17.2857 19 17.2857H19.4286C19.5421 17.2857 19.6514 17.3307 19.7318 17.4111C19.8121 17.4914 19.8571 17.6007 19.8571 17.7143ZM13.4286 19.8571C13.4286 19.9707 13.3836 20.08 13.3032 20.1604C13.2229 20.2407 13.1136 20.2857 13 20.2857H12.5714C12.3346 20.2857 12.1429 20.0939 12.1429 19.8571C12.1429 19.6203 12.3346 19.4286 12.5714 19.4286H13C13.1136 19.4286 13.2229 19.4736 13.3032 19.5539C13.3836 19.6343 13.4286 19.7436 13.4286 19.8571ZM15.5714 19.8571C15.5714 19.9707 15.5264 20.08 15.4461 20.1604C15.3657 20.2407 15.2564 20.2857 15.1429 20.2857H14.7143C14.4775 20.2857 14.2857 20.0939 14.2857 19.8571C14.2857 19.6203 14.4775 19.4286 14.7143 19.4286H15.1429C15.2564 19.4286 15.3657 19.4736 15.4461 19.5539C15.5264 19.6343 15.5714 19.7436 15.5714 19.8571Z" fill="white"/>
</svg>
