<svg width="18" height="18" viewBox="0 0 18 18" fill="none" xmlns="http://www.w3.org/2000/svg">
<path d="M14.3182 11.2355C13.3593 11.2355 12.42 11.0857 11.5298 10.792C11.1035 10.6431 10.5783 10.7789 10.3165 11.0489L8.55164 12.3817C6.52664 11.3009 5.23064 10.0057 4.16455 7.99545L5.46136 6.27236C5.78782 5.94591 5.90482 5.46809 5.76491 5.02055C5.46873 4.12464 5.31818 3.18455 5.31818 2.22727C5.31818 1.55064 4.76755 1 4.09091 1H1.22727C0.550636 1 0 1.55064 0 2.22727C0 10.1219 6.42355 16.5455 14.3182 16.5455C14.9948 16.5455 15.5455 15.9948 15.5455 15.3182V12.4627C15.5455 11.7861 14.9948 11.2355 14.3182 11.2355Z" fill="white"/>
<path d="M11.0455 5.09091C12.1751 5.09091 13.0909 4.17513 13.0909 3.04545C13.0909 1.91578 12.1751 1 11.0455 1C9.91578 1 9 1.91578 9 3.04545C9 4.17513 9.91578 5.09091 11.0455 5.09091Z" fill="white"/>
<path d="M15.9546 5.09091C17.0843 5.09091 18.0001 4.17513 18.0001 3.04545C18.0001 1.91578 17.0843 1 15.9546 1C14.825 1 13.9092 1.91578 13.9092 3.04545C13.9092 4.17513 14.825 5.09091 15.9546 5.09091Z" fill="white"/>
<path d="M15.9539 5.09162H11.0448C10.819 5.09162 10.6357 4.90835 10.6357 4.68253C10.6357 4.45671 10.819 4.27344 11.0448 4.27344H15.9539C16.1797 4.27344 16.363 4.45671 16.363 4.68253C16.363 4.90835 16.1797 5.09162 15.9539 5.09162Z" fill="white"/>
</svg>
