<svg width="30" height="30" viewBox="0 0 30 30" fill="none" xmlns="http://www.w3.org/2000/svg">
<path d="M16.1236 0C11.2666 0 6.97739 2.52308 4.48584 6.30771H4.54892C5.62123 6.30771 6.63046 6.74925 7.35585 7.47464C9.31124 4.76232 12.5282 3.0277 16.1236 3.0277C22.1159 3.0277 26.9728 7.88464 26.9728 13.877C26.9728 17.4724 25.2067 20.6893 22.5259 22.6447C23.0305 23.1178 23.3774 23.717 23.5667 24.4108C23.6613 24.7893 23.6928 25.1362 23.6928 25.5147C27.509 23.0231 30.0005 18.7339 30.0005 13.877C30.0005 6.24463 23.7874 0 16.1236 0Z" fill="white"/>
<path d="M21.0746 12.3643H17.6053V7.7912C17.6053 6.93965 16.9115 6.27734 16.0915 6.27734C15.2399 6.27734 14.5776 6.97119 14.5776 7.7912V13.9097C14.5776 14.7612 15.2715 15.4235 16.0915 15.4235H21.043C21.8946 15.4235 22.5569 14.7297 22.5569 13.9097C22.5884 13.0581 21.8946 12.3643 21.0746 12.3643Z" fill="white"/>
<path d="M20.2861 24.1895L15.9969 21.9818C15.3976 21.6665 14.6407 21.8241 14.2307 22.3603L12.6538 24.3788C11.1084 23.5588 9.94148 22.7703 8.58532 21.4141C7.13454 19.9634 6.37762 18.7964 5.58915 17.2826L7.57608 15.7372C8.11224 15.3272 8.26993 14.5703 7.95455 13.971L5.74685 9.71334C5.36838 8.95642 4.39069 8.70411 3.69684 9.17719L0.952986 11.0064C0.322214 11.4164 -0.0562483 12.1733 0.00682886 12.9303C0.069906 13.7187 0.164522 14.6964 0.322214 15.3903C1.11068 18.4495 3.03453 21.6034 5.71531 24.2842C8.39609 26.9649 11.5499 28.8888 14.6092 29.6772C15.303 29.8665 16.2807 29.9611 17.0692 29.9926C17.8261 30.0557 18.583 29.6772 18.993 29.0149L20.7592 26.2395C21.2954 25.5142 21.043 24.568 20.2861 24.1895Z" fill="white"/>
</svg>
