<svg width="18" height="18" viewBox="0 0 18 18" fill="none" xmlns="http://www.w3.org/2000/svg">
<path d="M13.0712 14.84C13.0712 14.9566 13.0744 15.0571 13.0707 15.1575C13.0623 15.376 12.9394 15.4995 12.7286 15.4995C10.2626 15.5001 7.79662 15.5001 5.33037 15.4993C5.04382 15.4993 4.9333 15.3802 4.9306 15.0862C4.92818 14.8117 4.97589 14.8394 4.6853 14.8389C4.19119 14.8378 3.69707 14.8405 3.20296 14.8397C2.66841 14.8389 2.26272 14.5988 2.02658 14.1066C1.79664 13.6275 1.84327 13.1534 2.14788 12.717C3.20188 11.2075 4.26127 9.70212 5.31258 8.19038C5.50478 7.91391 5.69293 7.64132 5.98191 7.46116C6.25363 7.29184 6.54773 7.19857 6.86393 7.19773C8.28777 7.19468 9.71188 7.19135 11.1357 7.19912C11.735 7.20245 12.2029 7.48365 12.5504 7.98192C13.2081 8.9246 13.8648 9.86784 14.5231 10.8103C14.9716 11.452 15.4261 12.0896 15.8704 12.7348C16.1693 13.1689 16.203 13.6427 15.9758 14.1141C15.7413 14.6004 15.3383 14.8375 14.8086 14.8383C14.2786 14.8391 13.7484 14.8394 13.2184 14.84C13.1753 14.8403 13.1319 14.84 13.0712 14.84ZM13.061 14.8053C13.0647 14.7478 13.0691 14.7115 13.0691 14.6751C13.0693 13.0565 13.0699 11.4379 13.0688 9.81927C13.0685 9.52141 12.9184 9.37152 12.6235 9.37152C10.2162 9.37041 7.80902 9.36957 5.4018 9.36985C5.07967 9.36985 4.93546 9.52169 4.93546 9.85591C4.93492 11.4515 4.93626 13.047 4.93303 14.6426C4.93276 14.7639 4.95729 14.8078 5.08695 14.8078C7.44942 14.8039 9.81162 14.8053 12.1741 14.8056C12.465 14.8053 12.7561 14.8053 13.061 14.8053Z" fill="white"/>
<path d="M9.00422 2.00011C10.2038 1.98762 11.2163 3.01469 11.2295 4.25745C11.2438 5.58015 10.262 6.62555 8.99479 6.63804C7.81517 6.6497 6.79028 5.60652 6.77654 4.38042C6.76171 3.04745 7.72945 2.01344 9.00422 2.00011Z" fill="white"/>
<path d="M13.1846 8.01885C13.3663 8.01885 13.5137 8.01885 13.6614 8.01885C14.0655 8.01885 14.4696 8.01802 14.8737 8.01913C15.2718 8.02024 15.5767 8.19707 15.808 8.53017C16.4555 9.46258 17.1065 10.3925 17.7596 11.321C17.8912 11.5078 18.0004 11.6966 18.0004 11.9387C18.0006 12.377 17.6718 12.7423 17.2466 12.7559C17.0135 12.7634 16.7795 12.7642 16.5466 12.7553C16.4981 12.7534 16.4417 12.7051 16.4064 12.6629C16.3603 12.6079 16.3412 12.528 16.2929 12.4761C16.136 12.3067 16.1029 12.1105 16.1069 11.8812C16.1196 11.1509 16.112 10.4203 16.1115 9.68993C16.1112 9.45065 16.0282 9.36598 15.794 9.36571C15.2777 9.36543 14.7613 9.3646 14.245 9.36876C14.1553 9.36959 14.0981 9.34267 14.045 9.26522C13.7916 8.89492 13.5315 8.52961 13.2741 8.16209C13.2487 8.12573 13.2272 8.08714 13.1846 8.01885Z" fill="white"/>
<path d="M4.81914 8.03407C4.58758 8.36523 4.34848 8.66253 4.15978 8.99064C3.98861 9.28821 3.77996 9.40091 3.44408 9.37371C3.03785 9.34095 2.6273 9.36566 2.21891 9.36649C1.96902 9.36677 1.89597 9.44088 1.8957 9.6946C1.89489 10.4807 1.89732 11.2668 1.89031 12.053C1.8895 12.1465 1.84907 12.2456 1.80621 12.3314C1.7469 12.4499 1.67412 12.5626 1.59487 12.6684C1.56306 12.7109 1.50025 12.7511 1.45011 12.7533C1.235 12.7633 1.01907 12.7622 0.803692 12.7583C0.478866 12.7525 0.230326 12.6034 0.0890741 12.3017C-0.0481347 12.0091 -0.0284564 11.7188 0.159431 11.4492C0.84817 10.4616 1.53583 9.47336 2.227 8.48737C2.42432 8.2059 2.69308 8.03352 3.03354 8.0263C3.59908 8.01408 4.1649 8.02019 4.73072 8.01936C4.75175 8.01908 4.77277 8.02602 4.81914 8.03407Z" fill="white"/>
<path d="M4.41274 4.79693C5.19636 4.80387 5.801 5.44259 5.79641 6.2587C5.7921 7.02928 5.15701 7.67995 4.41759 7.6719C3.64663 7.66357 3.02609 7.01846 3.03526 6.23511C3.04496 5.42622 3.65391 4.79026 4.41274 4.79693Z" fill="white"/>
<path d="M13.5871 7.66979C12.808 7.66091 12.2007 7.01385 12.2091 6.2008C12.2169 5.42661 12.8509 4.78261 13.5933 4.7951C14.3634 4.80815 14.9756 5.44271 14.97 6.2219C14.964 7.03412 14.3489 7.6784 13.5871 7.66979Z" fill="white"/>
<path d="M9.85114 12.1755C9.84899 12.6751 9.46944 13.0604 8.98233 13.0574C8.52138 13.0546 8.15126 12.6538 8.15531 12.1619C8.15935 11.6744 8.54186 11.2783 9.00228 11.2852C9.4813 11.2922 9.8533 11.6828 9.85114 12.1755Z" fill="white"/>
</svg>
