<svg width="18" height="17" viewBox="0 0 18 17" fill="none" xmlns="http://www.w3.org/2000/svg">
<path d="M13.9775 8.30176H15.0814C15.242 8.30176 15.3704 8.1733 15.3704 8.01274V4.23531C15.3704 4.07474 15.242 3.94629 15.0814 3.94629H13.9775C13.8169 3.94629 13.6885 4.07475 13.6885 4.23531V8.01274C13.6885 8.1693 13.8169 8.30176 13.9775 8.30176Z" fill="white"/>
<path d="M11.8496 8.30136H12.9535C13.1141 8.30136 13.2425 8.1729 13.2425 8.01234V2.39644C13.2425 2.23587 13.114 2.10742 12.9535 2.10742H11.8496C11.689 2.10742 11.5605 2.23588 11.5605 2.39644V8.00844C11.5605 8.16901 11.689 8.30136 11.8496 8.30136Z" fill="white"/>
<path d="M9.72661 8.30176H10.8305C10.9911 8.30176 11.1195 8.1733 11.1195 8.01274V4.23531C11.1195 4.07474 10.9911 3.94629 10.8305 3.94629H9.72661C9.56604 3.94629 9.43759 4.07475 9.43759 4.23531V8.01274C9.43357 8.1693 9.56605 8.30176 9.72661 8.30176Z" fill="white"/>
<path d="M17.711 9.831H16.6793V0.578033H17.711C17.8716 0.578033 18 0.449577 18 0.289017C18 0.128456 17.8715 0 17.711 0H0.289016C0.128446 0 0 0.128456 0 0.289017C0 0.449577 0.128456 0.578033 0.289016 0.578033H1.32068V9.831H0.289016C0.128446 9.831 0 9.95946 0 10.12C0 10.2806 0.128456 10.409 0.289016 10.409H1.60568H1.6097H1.61371H2.7096V11.4728C2.7096 11.8903 3.04679 12.2275 3.46428 12.2275C3.5245 12.2275 3.5807 12.2074 3.6369 12.1914V15.0334C3.6369 15.6516 4.14269 16.1574 4.7609 16.1574C5.09008 16.1574 5.38713 16.0129 5.59587 15.7881C5.80059 16.0169 6.09765 16.1574 6.43083 16.1574C7.04903 16.1574 7.55484 15.6517 7.55484 15.0334V12.1914C7.61104 12.2034 7.66724 12.2275 7.72745 12.2275C8.14492 12.2275 8.48213 11.8903 8.48213 11.4728V10.409H16.3862H16.3902H16.3942H17.7109C17.8715 10.409 17.9999 10.2806 17.9999 10.12C17.9999 9.95946 17.8715 9.831 17.711 9.831ZM16.1013 9.831H8.47816V8.93984C8.47816 8.8154 8.45809 8.69097 8.42196 8.57856C8.41393 8.54645 8.40189 8.51433 8.38583 8.48222C8.34167 8.3658 8.27343 8.26144 8.19716 8.16509C8.17709 8.141 8.15702 8.12093 8.13695 8.10086C8.12892 8.09283 8.1249 8.08882 8.11687 8.08079C8.10483 8.06874 8.08877 8.05269 8.07673 8.04064C8.04863 8.01656 8.01652 7.98846 7.98842 7.96839C7.9563 7.9443 7.92419 7.92423 7.89208 7.90015C7.70742 7.78775 7.49066 7.72352 7.26184 7.72352H3.92999C3.5928 7.72352 3.28771 7.86 3.06693 8.08079C2.84615 8.30157 2.70965 8.60666 2.70965 8.94385V9.83501H1.89878V0.578139H16.0972V9.83111L16.1013 9.831Z" fill="white"/>
<path d="M3.94637 6.1179C3.95842 6.15804 3.97447 6.19818 3.98652 6.23833C3.99856 6.26241 4.00659 6.29052 4.01863 6.3146C4.02264 6.32664 4.03067 6.33869 4.03469 6.35474C4.04673 6.37883 4.05877 6.40291 4.07483 6.427C4.08286 6.43904 4.08687 6.45108 4.0949 6.46313C4.11497 6.49925 4.13906 6.53538 4.16314 6.5675C4.22336 6.65982 4.29561 6.74412 4.37591 6.82441C4.68901 7.13751 5.11855 7.3302 5.59624 7.3302C6.07393 7.3302 6.50347 7.13751 6.81658 6.82441C6.89686 6.74814 6.96511 6.65982 7.02934 6.5675C7.05343 6.53538 7.0735 6.49925 7.09357 6.46313C7.14174 6.37883 7.18188 6.29051 7.21801 6.19818C7.22203 6.18613 7.22604 6.17008 7.23006 6.15803C7.29027 5.98542 7.32238 5.79675 7.32238 5.60407C7.32238 5.12638 7.1297 4.69684 6.81659 4.38373C6.68814 4.25528 6.54363 4.15091 6.38305 4.0666C6.34692 4.04653 6.30678 4.03047 6.27065 4.01441C6.24656 4.00237 6.21846 3.99434 6.19036 3.9823C6.17832 3.97829 6.16226 3.97427 6.15022 3.96624C6.12212 3.95822 6.09804 3.95019 6.06994 3.94216C5.92141 3.898 5.76084 3.87793 5.59625 3.87793C5.43166 3.87793 5.27511 3.90202 5.12257 3.94216C5.09447 3.95019 5.06637 3.95821 5.04228 3.96624C5.03024 3.97026 5.01418 3.97427 5.00214 3.9823C4.97404 3.99033 4.94995 4.00237 4.92186 4.01441C4.88171 4.03047 4.84559 4.05054 4.80946 4.0666C4.64889 4.1509 4.50036 4.25527 4.37591 4.38373C4.2595 4.50015 4.15914 4.63664 4.07886 4.78115C4.06682 4.80523 4.05477 4.82932 4.03872 4.8534C4.03069 4.86545 4.02667 4.87749 4.02266 4.89355C4.01062 4.91763 3.99857 4.94573 3.99055 4.96982C3.97449 5.00996 3.96245 5.0501 3.9504 5.09024C3.94237 5.11834 3.93435 5.14243 3.92632 5.17053C3.89019 5.30701 3.87012 5.45153 3.87012 5.60407C3.87012 5.7526 3.89019 5.89712 3.92632 6.03359C3.93033 6.0657 3.93834 6.0898 3.94637 6.1179Z" fill="white"/>
</svg>
