<svg width="23" height="28" viewBox="0 0 23 28" fill="none" xmlns="http://www.w3.org/2000/svg">
<path d="M21.675 6.96295C20.9703 6.96295 20.2656 6.96295 19.5577 6.96295C18.5933 6.96295 17.6256 6.96295 16.6612 6.96295C16.58 6.96295 16.502 6.96295 16.4209 6.96295C16.4014 6.96295 16.3851 6.96295 16.3657 6.96295C16.3267 6.96295 16.2682 6.94347 16.2293 6.95321C16.2325 6.95321 16.3624 6.97594 16.291 6.9597C16.2617 6.95321 16.2325 6.94996 16.2033 6.94347C16.1546 6.93048 16.1059 6.91749 16.0572 6.90125C16.0377 6.89476 16.0149 6.88502 15.9955 6.87852C15.924 6.85579 16.0572 6.90125 16.0507 6.9045C16.0149 6.92398 15.8201 6.77785 15.7876 6.75837C15.687 6.69667 15.8721 6.83631 15.7844 6.75837C15.7487 6.7259 15.7097 6.69343 15.674 6.65771C15.6448 6.62848 15.6155 6.59601 15.5863 6.56353C15.5798 6.55704 15.5441 6.52132 15.5441 6.51482C15.5441 6.52457 15.622 6.62848 15.5701 6.54405C15.5214 6.46287 15.4791 6.38169 15.4337 6.30375C15.4012 6.2453 15.4564 6.35571 15.4564 6.35895C15.4564 6.34272 15.4402 6.31349 15.4337 6.29726C15.4142 6.24205 15.398 6.18685 15.385 6.1284C15.3785 6.10242 15.3557 5.95954 15.3687 6.06345C15.385 6.16737 15.3655 5.99201 15.3655 5.96928C15.3655 5.9498 15.3655 5.93356 15.3655 5.91408C15.3655 5.8881 15.3655 5.85887 15.3655 5.83289C15.3655 4.95288 15.3655 4.07611 15.3655 3.1961C15.3655 2.36804 15.3882 1.53349 15.3655 0.705428C15.3655 0.692439 15.3655 0.676203 15.3655 0.663214C14.9953 0.815836 14.6251 0.968459 14.2582 1.12108C15.0408 1.90368 15.8201 2.68303 16.6027 3.46562C17.8497 4.71258 19.0966 5.95954 20.3436 7.2065C20.6326 7.4955 20.9184 7.78127 21.2074 8.07028C21.4477 8.31057 21.8893 8.33006 22.1263 8.07028C22.3634 7.81049 22.3829 7.40783 22.1263 7.15129C21.3437 6.3687 20.5644 5.58935 19.7818 4.80675C18.5348 3.55979 17.2879 2.31284 16.0409 1.06588C15.7519 0.776869 15.4662 0.491107 15.1771 0.202099C14.781 -0.19407 14.0698 0.098186 14.0698 0.659967C14.0698 1.39061 14.0698 2.12449 14.0698 2.85513C14.0698 3.81633 14.0698 4.77428 14.0698 5.73548C14.0698 6.27777 14.1672 6.82007 14.4985 7.26495C14.9693 7.89817 15.6642 8.25537 16.4566 8.25862C17.3171 8.25862 18.1776 8.25862 19.0382 8.25862C19.8987 8.25862 20.7625 8.27485 21.623 8.25862C21.6392 8.25862 21.6555 8.25862 21.6685 8.25862C22.0094 8.25862 22.3342 7.95987 22.3179 7.60916C22.3082 7.2617 22.0387 6.96295 21.675 6.96295Z" fill="#5F6383"/>
<path d="M21.0262 7.61272C21.0262 8.2427 21.0262 8.86942 21.0262 9.4994C21.0262 10.9899 21.0262 12.4804 21.0262 13.9742C21.0262 15.7342 21.0262 17.4942 21.0262 19.2575C21.0262 20.696 21.0262 22.1313 21.0262 23.5699C21.0262 23.979 21.0262 24.3915 21.0262 24.8006C21.0262 24.898 21.0262 24.9987 21.0262 25.0961C21.0262 25.1124 21.0262 25.1286 21.0262 25.1448C21.0262 25.2065 21.0229 25.2682 21.0197 25.3299C21.0197 25.3462 21.0164 25.3591 21.0164 25.3754C21.0099 25.4338 21.0099 25.4338 21.0164 25.3786C21.0197 25.3656 21.0197 25.3494 21.0229 25.3364C21.0197 25.3656 21.0132 25.3949 21.0067 25.4241C20.9905 25.5085 20.9677 25.5929 20.9385 25.6774C20.9288 25.7034 20.919 25.7326 20.9093 25.7586C20.8606 25.9014 20.9775 25.6287 20.9093 25.7618C20.8768 25.8268 20.8443 25.8885 20.8086 25.9501C20.7924 25.9761 20.7144 26.1287 20.6917 26.1287C20.6917 26.1287 20.7956 26.0054 20.7144 26.0963C20.682 26.1352 20.6495 26.171 20.617 26.2067C20.5748 26.2521 20.5293 26.2976 20.4806 26.3398C20.4644 26.3528 20.4027 26.421 20.3832 26.421C20.4059 26.421 20.4904 26.3463 20.4124 26.395C20.354 26.434 20.2955 26.473 20.2338 26.5087C20.1981 26.5314 20.1592 26.5509 20.1202 26.5704C20.1072 26.5769 20.0942 26.5834 20.0812 26.5899C20.0163 26.6191 20.0293 26.6126 20.1169 26.5769C20.1072 26.6029 19.9383 26.6386 19.9124 26.6483C19.8409 26.6678 19.7695 26.6808 19.698 26.697C19.5552 26.7295 19.8117 26.6873 19.7175 26.697C19.6818 26.7003 19.6428 26.7035 19.6071 26.7068C19.5617 26.71 19.5162 26.71 19.4707 26.71C19.4577 26.71 19.4415 26.71 19.4285 26.71C19.1557 26.71 18.883 26.71 18.6102 26.71C17.3145 26.71 16.0189 26.71 14.7232 26.71C12.9827 26.71 11.2389 26.71 9.49831 26.71C7.95585 26.71 6.41664 26.71 4.87418 26.71C4.19874 26.71 3.52331 26.7165 2.84787 26.71C2.81864 26.71 2.78617 26.71 2.75695 26.7068C2.71148 26.7035 2.66602 26.7003 2.62381 26.697C2.51989 26.6905 2.66278 26.7035 2.66278 26.7035C2.64979 26.723 2.21465 26.6126 2.20166 26.5769C2.21465 26.6061 2.32506 26.6386 2.2179 26.5801C2.18542 26.5639 2.15295 26.5477 2.12373 26.5314C2.06203 26.4989 2.00033 26.46 1.94188 26.421C1.94512 26.4243 1.87044 26.3755 1.87368 26.3723C1.89642 26.3885 1.9159 26.4048 1.93863 26.421C1.9159 26.4048 1.89317 26.3853 1.87368 26.3658C1.81523 26.3138 1.76003 26.2619 1.70483 26.2034C1.68209 26.1775 1.65612 26.1515 1.63338 26.1255C1.6139 26.1028 1.57169 26.0086 1.60416 26.093C1.63988 26.184 1.59442 26.0768 1.58143 26.0541C1.56194 26.0248 1.54246 25.9956 1.52298 25.9631C1.4905 25.9079 1.45803 25.8527 1.42881 25.7943C1.42231 25.7813 1.41582 25.7683 1.40932 25.7553C1.3801 25.6904 1.38659 25.7034 1.42231 25.791C1.41257 25.7878 1.3801 25.6806 1.37685 25.6709C1.35412 25.6027 1.33463 25.5312 1.3184 25.4598C1.31515 25.4501 1.28593 25.3332 1.29242 25.3299C1.29567 25.3299 1.30866 25.502 1.29891 25.3689C1.29242 25.2942 1.28917 25.2163 1.28593 25.1416C1.28593 24.989 1.28593 24.8363 1.28593 24.6837C1.28593 23.7128 1.28593 22.7386 1.28593 21.7676C1.28593 20.2122 1.28593 18.66 1.28593 17.1045C1.28593 15.3348 1.28593 13.565 1.28593 11.7952C1.28593 10.1781 1.28593 8.56093 1.28593 6.94378C1.28593 5.8462 1.28593 4.74862 1.28593 3.65428C1.28593 3.41723 1.28593 3.17693 1.28593 2.93988C1.28593 2.92039 1.28593 2.90091 1.28593 2.87818C1.28593 2.87493 1.28593 2.87168 1.28593 2.86844C1.28593 2.83596 1.28593 2.80999 1.28917 2.77751C1.28917 2.74829 1.29242 2.71581 1.29567 2.68659C1.29891 2.65736 1.30216 2.62814 1.30541 2.59891C1.29242 2.68984 1.28917 2.71257 1.29891 2.66061C1.33139 2.52422 1.36386 2.39433 1.40932 2.26119C1.45803 2.11831 1.34113 2.39109 1.40932 2.25795C1.42231 2.23197 1.4353 2.20599 1.44829 2.18001C1.48726 2.10532 1.53272 2.03064 1.57818 1.9592C1.59117 1.93971 1.63988 1.83255 1.60091 1.92023C1.56519 2.00466 1.61065 1.91049 1.63014 1.88776C1.6756 1.83255 1.72431 1.78384 1.77627 1.73513C1.80874 1.70591 1.89642 1.5955 1.93538 1.5955C1.91265 1.5955 1.82822 1.67019 1.90616 1.62148C1.95487 1.59225 2.00033 1.55653 2.04904 1.53055C2.11074 1.49483 2.17568 1.46236 2.23738 1.42989C2.32506 1.38443 2.20491 1.43314 2.20166 1.44288C2.20815 1.42989 2.28609 1.4104 2.30233 1.40391C2.37052 1.38118 2.44196 1.3617 2.51015 1.34221C2.54587 1.33247 2.58159 1.32922 2.61731 1.31948C2.75695 1.28701 2.48742 1.32598 2.62056 1.31623C2.70499 1.30974 2.78942 1.30649 2.8771 1.30324C2.9875 1.30324 3.09466 1.30324 3.20507 1.30324C3.72464 1.30324 4.24096 1.30324 4.76052 1.30324C6.42638 1.30324 8.09549 1.30324 9.76134 1.30324C11.1902 1.30324 12.619 1.30324 14.051 1.30324C14.2783 1.30324 14.5056 1.30324 14.7362 1.30324C14.5836 1.2383 14.4309 1.1766 14.2783 1.11165C15.0609 1.89425 15.8403 2.6736 16.6229 3.4562C17.8698 4.70315 19.1168 5.95011 20.3637 7.19707C20.6527 7.48608 20.9385 7.77184 21.2275 8.06085C21.4678 8.30115 21.9094 8.32063 22.1465 8.06085C22.3835 7.80107 22.403 7.3984 22.1465 7.14187C21.2762 6.27159 20.4059 5.40132 19.5357 4.53105C18.2627 3.25811 16.9898 1.98517 15.7169 0.712238C15.5707 0.56611 15.4214 0.416735 15.2752 0.270607C15.1194 0.114738 14.944 0.0108243 14.7102 0.00432972C14.3075 -0.00541214 13.9016 0.00432972 13.499 0.00432972C11.6675 0.00432972 9.83603 0.00432972 8.00456 0.00432972C6.42313 0.00432972 4.84495 0.00432972 3.26352 0.00432972C3.13363 0.00432972 3.00699 0.00432972 2.8771 0.00432972C2.29258 0.007577 1.69833 0.176436 1.22423 0.517401C0.4189 1.09867 0 1.98193 0 2.9691C0 3.88808 0 4.80707 0 5.72605C0 7.47309 0 9.22013 0 10.9672C0 12.9902 0 15.0133 0 17.0363C0 18.7834 0 20.5304 0 22.2775C0 23.1965 0 24.1154 0 25.0344C0 26.0346 0.435136 26.9308 1.25995 27.5088C1.82497 27.9083 2.48417 27.9992 3.15636 27.9992C4.43579 27.9992 5.71522 27.9992 6.9979 27.9992C8.982 27.9992 10.9628 27.9992 12.9469 27.9992C14.642 27.9992 16.3371 27.9992 18.0289 27.9992C18.4576 27.9992 18.8862 27.9992 19.3116 27.9992C19.3993 27.9992 19.487 28.0024 19.5746 27.9959C20.3767 27.9635 21.1658 27.5998 21.6724 26.9698C22.0978 26.4405 22.3348 25.8138 22.3413 25.1318C22.3413 25.0507 22.3413 24.9727 22.3413 24.8915C22.3413 24.4337 22.3413 23.9758 22.3413 23.5179C22.3413 21.8228 22.3413 20.1278 22.3413 18.4327C22.3413 16.4356 22.3413 14.4385 22.3413 12.4414C22.3413 11.0321 22.3413 9.62604 22.3413 8.21672C22.3413 8.01214 22.3413 7.80756 22.3413 7.60298C22.3413 7.26202 22.0426 6.93729 21.6919 6.95352C21.3217 6.9795 21.0262 7.24903 21.0262 7.61272Z" fill="#5F6383"/>
<path d="M5.00356 14.1523C5.40947 14.1523 5.81863 14.1523 6.22454 14.1523C7.20197 14.1523 8.1794 14.1523 9.16008 14.1523C10.3421 14.1523 11.5274 14.1523 12.7094 14.1523C13.7323 14.1523 14.7584 14.1523 15.7813 14.1523C16.2814 14.1523 16.7815 14.1653 17.2783 14.1523C17.2848 14.1523 17.2945 14.1523 17.301 14.1523C17.642 14.1523 17.9667 13.8536 17.9505 13.5029C17.9343 13.1522 17.6647 12.8534 17.301 12.8534C16.8951 12.8534 16.486 12.8534 16.0801 12.8534C15.1026 12.8534 14.1252 12.8534 13.1445 12.8534C11.9625 12.8534 10.7772 12.8534 9.59522 12.8534C8.57233 12.8534 7.54618 12.8534 6.52329 12.8534C6.02321 12.8534 5.52312 12.8404 5.02629 12.8534C5.01979 12.8534 5.01005 12.8534 5.00356 12.8534C4.66259 12.8534 4.33786 13.1522 4.3541 13.5029C4.37034 13.8536 4.63986 14.1523 5.00356 14.1523Z" fill="#5F6383"/>
<path d="M5.00356 18.3125C5.40947 18.3125 5.81863 18.3125 6.22454 18.3125C7.20197 18.3125 8.1794 18.3125 9.16008 18.3125C10.3421 18.3125 11.5274 18.3125 12.7094 18.3125C13.7323 18.3125 14.7584 18.3125 15.7813 18.3125C16.2814 18.3125 16.7815 18.3255 17.2783 18.3125C17.2848 18.3125 17.2945 18.3125 17.301 18.3125C17.642 18.3125 17.9667 18.0137 17.9505 17.663C17.9343 17.3123 17.6647 17.0136 17.301 17.0136C16.8951 17.0136 16.486 17.0136 16.0801 17.0136C15.1026 17.0136 14.1252 17.0136 13.1445 17.0136C11.9625 17.0136 10.7772 17.0136 9.59522 17.0136C8.57233 17.0136 7.54618 17.0136 6.52329 17.0136C6.02321 17.0136 5.52312 17.0006 5.02629 17.0136C5.01979 17.0136 5.01005 17.0136 5.00356 17.0136C4.66259 17.0136 4.33786 17.3123 4.3541 17.663C4.37034 18.017 4.63986 18.3125 5.00356 18.3125Z" fill="#5F6383"/>
<path d="M5.00405 22.4747C5.8386 22.4747 6.6764 22.4747 7.51095 22.4747C8.84883 22.4747 10.19 22.4747 11.5278 22.4747C11.8331 22.4747 12.1416 22.4747 12.4468 22.4747C12.7878 22.4747 13.1125 22.1759 13.0963 21.8252C13.08 21.4745 12.8105 21.1758 12.4468 21.1758C11.6123 21.1758 10.7745 21.1758 9.93992 21.1758C8.60204 21.1758 7.26091 21.1758 5.92303 21.1758C5.61778 21.1758 5.30929 21.1758 5.00405 21.1758C4.66308 21.1758 4.33835 21.4745 4.35459 21.8252C4.37082 22.1759 4.64035 22.4747 5.00405 22.4747Z" fill="#5F6383"/>
</svg>
