<svg width="31" height="30" viewBox="0 0 31 30" fill="none" xmlns="http://www.w3.org/2000/svg">
<path d="M17.6459 1.02784C17.6459 0.462654 18.201 0 18.8963 0C19.5915 0 20.1467 0.457652 20.1467 1.02784V5.51433C20.1467 6.07702 19.5915 6.54217 18.8963 6.54217C18.201 6.54217 17.6459 6.08202 17.6459 5.51433V1.02784ZM3.64121 19.7416H6.50216C6.59017 19.7422 6.67439 19.7775 6.73663 19.8397C6.79887 19.9019 6.83412 19.9862 6.83477 20.0742V22.1924C6.83412 22.2804 6.79887 22.3646 6.73663 22.4268C6.67439 22.4891 6.59017 22.5243 6.50216 22.525H3.63371C3.54593 22.5243 3.46197 22.489 3.40013 22.4267C3.3383 22.3644 3.3036 22.2802 3.3036 22.1924V20.0742C3.3036 19.9864 3.3383 19.9022 3.40013 19.8399C3.46197 19.7776 3.54593 19.7422 3.63371 19.7416H3.64121ZM14.6174 13.7021H17.4858C17.5703 13.7025 17.6515 13.7347 17.7134 13.7921C16.5894 14.4962 15.6127 15.4118 14.8374 16.488H14.6174C14.5296 16.4873 14.4456 16.452 14.3838 16.3897C14.3219 16.3274 14.2872 16.2431 14.2872 16.1554V14.0347C14.2872 13.9469 14.3219 13.8627 14.3838 13.8004C14.4456 13.738 14.5296 13.7027 14.6174 13.7021ZM9.11553 13.7021H12.004C12.0918 13.7021 12.176 13.7367 12.2383 13.7986C12.3006 13.8604 12.3359 13.9444 12.3366 14.0322V16.1529C12.3359 16.2409 12.3007 16.3251 12.2385 16.3873C12.1762 16.4496 12.092 16.4848 12.004 16.4855H9.12553C9.03798 16.4855 8.95402 16.4507 8.89211 16.3888C8.8302 16.3269 8.79542 16.2429 8.79542 16.1554V14.0322C8.79608 13.9448 8.83107 13.8612 8.89283 13.7995C8.9546 13.7377 9.03819 13.7027 9.12553 13.7021H9.11553ZM3.6137 13.7021H6.50216C6.58994 13.7021 6.67417 13.7367 6.73647 13.7986C6.79878 13.8604 6.83411 13.9444 6.83477 14.0322V16.1529C6.83412 16.2409 6.79887 16.3251 6.73663 16.3873C6.67439 16.4496 6.59017 16.4848 6.50216 16.4855H3.63371C3.54636 16.4848 3.46278 16.4498 3.40101 16.3881C3.33924 16.3263 3.30425 16.2427 3.3036 16.1554V14.0322C3.30425 13.9448 3.33924 13.8612 3.40101 13.7995C3.46278 13.7377 3.54636 13.7027 3.63371 13.7021H3.6137ZM9.11553 19.7416H12.004C12.092 19.7422 12.1762 19.7775 12.2385 19.8397C12.3007 19.9019 12.3359 19.9862 12.3366 20.0742V22.1924C12.3359 22.2804 12.3007 22.3646 12.2385 22.4268C12.1762 22.4891 12.092 22.5243 12.004 22.525H9.12553C9.03775 22.5243 8.95379 22.489 8.89196 22.4267C8.83012 22.3644 8.79542 22.2802 8.79542 22.1924V20.0742C8.79509 20.0306 8.80339 19.9874 8.81983 19.9471C8.83627 19.9067 8.86054 19.87 8.89122 19.8391C8.92191 19.8082 8.95841 19.7837 8.99863 19.7669C9.03884 19.7502 9.08197 19.7416 9.12553 19.7416H9.11553ZM6.40713 1.02784C6.40713 0.462654 6.96231 0 7.65755 0C8.35278 0 8.90796 0.457652 8.90796 1.02784V5.51433C8.90796 6.07702 8.35028 6.54217 7.65755 6.54217C6.96482 6.54217 6.40713 6.08202 6.40713 5.51433V1.02784ZM1.37796 9.81076H25.2084V4.64654C25.2088 4.56375 25.1927 4.48171 25.1609 4.40525C25.1291 4.3288 25.0823 4.25949 25.0233 4.2014C24.965 4.14274 24.8956 4.09619 24.8192 4.06443C24.7428 4.03267 24.6609 4.01632 24.5782 4.01633H22.2949C22.1112 4.01633 21.935 3.94335 21.8051 3.81344C21.6752 3.68353 21.6022 3.50733 21.6022 3.3236C21.6022 3.13988 21.6752 2.96368 21.8051 2.83377C21.935 2.70386 22.1112 2.63087 22.2949 2.63087H24.5782C24.8436 2.63055 25.1065 2.68259 25.3518 2.78402C25.5971 2.88545 25.82 3.03428 26.0077 3.22198C26.1954 3.40968 26.3443 3.63257 26.4457 3.87788C26.5471 4.12319 26.5992 4.38609 26.5988 4.65155V12.8543C26.1397 12.6959 25.6701 12.5698 25.1934 12.4766V11.1962H1.37796V24.5782C1.37781 24.6609 1.39409 24.7429 1.42586 24.8193C1.45763 24.8957 1.50425 24.9651 1.56302 25.0233C1.67932 25.1395 1.83628 25.2059 2.00067 25.2084H13.3319C13.4609 25.6859 13.623 26.1539 13.8171 26.6088H2.02067C1.75522 26.6092 1.49231 26.5571 1.24701 26.4557C1.0017 26.3543 0.778811 26.2054 0.591108 26.0177C0.403406 25.83 0.254577 25.6071 0.153146 25.3618C0.051714 25.1165 -0.000327588 24.8536 1.55153e-06 24.5882V4.65155C0.000663334 4.11583 0.213767 3.60225 0.592573 3.22345C0.971379 2.84464 1.48496 2.63154 2.02067 2.63087H4.45898C4.64271 2.63087 4.8189 2.70386 4.94882 2.83377C5.07873 2.96368 5.15171 3.13988 5.15171 3.3236C5.15171 3.50733 5.07873 3.68353 4.94882 3.81344C4.8189 3.94335 4.64271 4.01633 4.45898 4.01633H2.02067C1.93788 4.01591 1.85584 4.03206 1.77938 4.06384C1.70293 4.09563 1.63361 4.1424 1.57553 4.2014C1.45842 4.32015 1.39206 4.47977 1.39046 4.64654V9.81326L1.37796 9.81076ZM10.9086 4.01383C10.7249 4.01383 10.5487 3.94085 10.4188 3.81094C10.2889 3.68103 10.2159 3.50483 10.2159 3.3211C10.2159 3.13738 10.2889 2.96118 10.4188 2.83127C10.5487 2.70136 10.7249 2.62837 10.9086 2.62837H15.5602C15.7439 2.62837 15.9201 2.70136 16.05 2.83127C16.1799 2.96118 16.2529 3.13738 16.2529 3.3211C16.2529 3.50483 16.1799 3.68103 16.05 3.81094C15.9201 3.94085 15.7439 4.01383 15.5602 4.01383H10.9086Z" fill="white"/>
<path fill-rule="evenodd" clip-rule="evenodd" d="M23.1229 14.7852C24.6271 14.7871 26.097 15.235 27.3467 16.0721C28.5964 16.9093 29.5699 18.0981 30.1442 19.4883C30.7185 20.8786 30.8677 22.4079 30.573 23.883C30.2784 25.358 29.553 26.7126 28.4887 27.7756C27.4244 28.8385 26.0688 29.562 24.5934 29.8548C23.1179 30.1475 21.5888 29.9963 20.1993 29.4202C18.8098 28.8441 17.6223 27.869 16.7868 26.6182C15.9513 25.3673 15.5054 23.8969 15.5054 22.3927C15.5054 21.3928 15.7025 20.4027 16.0854 19.4791C16.4684 18.5555 17.0296 17.7164 17.7371 17.0098C18.4446 16.3033 19.2844 15.7431 20.2086 15.3614C21.1327 14.9797 22.123 14.7838 23.1229 14.7852ZM22.3076 25.4312H23.9307V26.8692H22.3076V25.4312ZM23.9307 24.4309H22.3076C22.1451 22.4577 21.8075 21.2048 21.8075 19.2316C21.8223 18.8924 21.9674 18.5719 22.2127 18.337C22.4581 18.1022 22.7845 17.9711 23.1242 17.9711C23.4638 17.9711 23.7902 18.1022 24.0356 18.337C24.2809 18.5719 24.4261 18.8924 24.4408 19.2316C24.4408 21.2023 24.0982 22.4577 23.9407 24.4309H23.9307Z" fill="white"/>
</svg>
