<svg width="12" height="12" viewBox="0 0 12 12" fill="none" xmlns="http://www.w3.org/2000/svg">
<path d="M8.11152 1.02832L8.11136 1.02848L1.30603 7.83392C1.01138 8.12858 0.819387 8.51061 0.761745 8.92429C0.761737 8.92435 0.761728 8.92441 0.761719 8.92448L0.447552 11.1204L0.447515 11.1206C0.412522 11.37 0.607155 11.5868 0.850842 11.5868C0.871362 11.5868 0.891007 11.5846 0.904874 11.5831L0.906536 11.5829L0.906541 11.5829L0.909657 11.5825L3.10588 11.2683L3.10592 11.2682C3.51909 11.209 3.90115 11.0189 4.19605 10.724L11.0014 3.91854C11.7995 3.12038 11.7995 1.82663 11.0014 1.02848C10.6031 0.630242 10.0796 0.430273 9.55637 0.430273C9.03302 0.430273 8.51124 0.630324 8.11152 1.02832ZM2.97894 10.3706L2.97839 10.3707L1.4383 10.5901L1.65759 9.05042C1.6576 9.05034 1.65762 9.05026 1.65763 9.05018C1.67254 8.94914 1.70245 8.85044 1.74561 8.75892L3.2688 10.2821C3.17736 10.3265 3.07945 10.3569 2.97894 10.3706ZM10.3606 3.27589L10.3605 3.27601L10.2113 3.42522L8.6046 1.81697L8.75388 1.66769C8.96831 1.45326 9.25379 1.3348 9.55802 1.3348C9.86223 1.3348 10.1477 1.45324 10.3621 1.66764C10.8045 2.11158 10.8043 2.83378 10.3606 3.27589ZM2.34506 8.07663L7.96374 2.45785L9.57045 4.06611L3.95333 9.68493L2.34506 8.07663Z" fill="#F56D3B" stroke="#F56D3B" stroke-width="0.2"/>
</svg>
