<svg width="19" height="20" viewBox="0 0 19 20" fill="none" xmlns="http://www.w3.org/2000/svg">
<path d="M0.985942 4.06404H10.04C10.2087 4.67342 10.5769 5.21134 11.0878 5.59483C11.5986 5.97833 12.2237 6.1861 12.8667 6.1861C13.5096 6.1861 14.1348 5.97833 14.6456 5.59483C15.1564 5.21134 15.5246 4.67342 15.6934 4.06404H17.4164C17.5195 4.06404 17.6215 4.0441 17.7167 4.00537C17.8119 3.96663 17.8984 3.90985 17.9713 3.83828C18.0442 3.7667 18.102 3.68173 18.1414 3.58822C18.1809 3.4947 18.2012 3.39447 18.2012 3.29325C18.2012 3.19203 18.1809 3.0918 18.1414 2.99828C18.102 2.90476 18.0442 2.81979 17.9713 2.74822C17.8984 2.67664 17.8119 2.61987 17.7167 2.58113C17.6215 2.54239 17.5195 2.52246 17.4164 2.52246H15.6869C15.5181 1.91308 15.1499 1.37516 14.6391 0.991661C14.1283 0.608162 13.5032 0.400391 12.8602 0.400391C12.2172 0.400391 11.5921 0.608162 11.0813 0.991661C10.5704 1.37516 10.2023 1.91308 10.0335 2.52246H0.985942C0.882885 2.52246 0.780836 2.54239 0.685624 2.58113C0.590411 2.61987 0.503899 2.67664 0.431026 2.74822C0.358153 2.81979 0.300347 2.90476 0.260909 2.99828C0.221471 3.0918 0.201172 3.19203 0.201172 3.29325C0.201172 3.39447 0.221471 3.4947 0.260909 3.58822C0.300347 3.68173 0.358153 3.7667 0.431026 3.83828C0.503899 3.90985 0.590411 3.96663 0.685624 4.00537C0.780836 4.0441 0.882885 4.06404 0.985942 4.06404ZM12.8764 1.94277C13.1482 1.94445 13.4133 2.02519 13.6384 2.17478C13.8634 2.32438 14.0383 2.53613 14.1409 2.78329C14.2435 3.03045 14.2693 3.30193 14.2149 3.56345C14.1605 3.82496 14.0285 4.06479 13.8354 4.25264C13.6423 4.44049 13.3969 4.56793 13.1302 4.61887C12.8634 4.66982 12.5873 4.64197 12.3366 4.53887C12.0859 4.43576 11.872 4.262 11.7218 4.03955C11.5716 3.81709 11.4919 3.55592 11.4928 3.289C11.4936 3.11137 11.5301 2.93565 11.6001 2.77187C11.6701 2.60808 11.7722 2.45944 11.9007 2.33443C12.0292 2.20942 12.1815 2.11049 12.3489 2.04329C12.5163 1.97609 12.6956 1.94193 12.8764 1.94277Z" fill="white"/>
<path d="M17.4164 8.9527H8.36019C8.19221 8.34337 7.82444 7.80529 7.31371 7.42163C6.80299 7.03797 6.17774 6.83008 5.53459 6.83008C4.89143 6.83008 4.26618 7.03797 3.75546 7.42163C3.24473 7.80529 2.87696 8.34337 2.70898 8.9527H0.985942C0.777808 8.9527 0.578199 9.03385 0.431026 9.17829C0.283853 9.32274 0.201172 9.51866 0.201172 9.72294C0.201172 9.92722 0.283853 10.1231 0.431026 10.2676C0.578199 10.412 0.777808 10.4932 0.985942 10.4932H2.71546C2.88345 11.1025 3.25122 11.6406 3.76194 12.0242C4.27267 12.4079 4.89792 12.6158 5.54107 12.6158C6.18422 12.6158 6.80947 12.4079 7.3202 12.0242C7.83092 11.6406 8.19869 11.1025 8.36668 10.4932H17.4164C17.6245 10.4932 17.8241 10.412 17.9713 10.2676C18.1185 10.1231 18.2012 9.92722 18.2012 9.72294C18.2012 9.51866 18.1185 9.32274 17.9713 9.17829C17.8241 9.03385 17.6245 8.9527 17.4164 8.9527ZM5.52594 11.0724C5.25437 11.0708 4.98939 10.9902 4.76442 10.8409C4.53944 10.6916 4.36456 10.4802 4.26181 10.2335C4.15907 9.98678 4.13307 9.71571 4.1871 9.45449C4.24112 9.19328 4.37275 8.95361 4.56539 8.76573C4.75802 8.57784 5.00303 8.45016 5.26951 8.39877C5.53599 8.34738 5.812 8.3746 6.06274 8.47698C6.31348 8.57937 6.52771 8.75234 6.67842 8.97408C6.82912 9.19581 6.90955 9.45639 6.90956 9.72294C6.90927 9.90079 6.87323 10.0768 6.80349 10.241C6.73375 10.4052 6.63169 10.5542 6.50315 10.6796C6.37461 10.8049 6.22212 10.9042 6.05444 10.9716C5.88675 11.039 5.70715 11.0733 5.52594 11.0724Z" fill="white"/>
<path d="M17.4164 15.3799H15.6869C15.5181 14.7705 15.1499 14.2326 14.6391 13.8491C14.1283 13.4656 13.5032 13.2578 12.8602 13.2578C12.2172 13.2578 11.5921 13.4656 11.0813 13.8491C10.5704 14.2326 10.2023 14.7705 10.0335 15.3799H0.985942C0.777808 15.3799 0.578199 15.4611 0.431026 15.6056C0.283853 15.7502 0.201172 15.9462 0.201172 16.1507C0.201172 16.3551 0.283853 16.5512 0.431026 16.6957C0.578199 16.8403 0.777808 16.9215 0.985942 16.9215H10.04C10.2087 17.5308 10.5769 18.0688 11.0878 18.4523C11.5986 18.8358 12.2237 19.0435 12.8667 19.0435C13.5096 19.0435 14.1348 18.8358 14.6456 18.4523C15.1564 18.0688 15.5246 17.5308 15.6934 16.9215H17.4164C17.6245 16.9215 17.8241 16.8403 17.9713 16.6957C18.1185 16.5512 18.2012 16.3551 18.2012 16.1507C18.2012 15.9462 18.1185 15.7502 17.9713 15.6056C17.8241 15.4611 17.6245 15.3799 17.4164 15.3799ZM12.8764 17.5033C12.604 17.505 12.3372 17.4271 12.1099 17.2797C11.8827 17.1322 11.7051 16.9218 11.5997 16.675C11.4944 16.4283 11.4661 16.1564 11.5183 15.8938C11.5706 15.6312 11.701 15.3898 11.8932 15.2002C12.0854 15.0105 12.3306 14.8812 12.5976 14.8287C12.8647 14.7761 13.1417 14.8026 13.3934 14.9049C13.6451 15.0072 13.8602 15.1806 14.0114 15.4032C14.1627 15.6257 14.2431 15.8874 14.2427 16.1549C14.2405 16.5105 14.0959 16.851 13.8403 17.1029C13.5847 17.3548 13.2385 17.4978 12.8764 17.5011V17.5033Z" fill="white"/>
</svg>
