<svg width="19" height="20" viewBox="0 0 19 20" fill="none" xmlns="http://www.w3.org/2000/svg">
<path d="M0.985942 4.06404H10.04C10.2087 4.67342 10.5769 5.21134 11.0878 5.59483C11.5986 5.97833 12.2237 6.1861 12.8667 6.1861C13.5096 6.1861 14.1348 5.97833 14.6456 5.59483C15.1564 5.21134 15.5246 4.67342 15.6934 4.06404H17.4164C17.5195 4.06404 17.6215 4.0441 17.7167 4.00537C17.8119 3.96663 17.8984 3.90985 17.9713 3.83828C18.0442 3.7667 18.102 3.68173 18.1414 3.58822C18.1809 3.4947 18.2012 3.39447 18.2012 3.29325C18.2012 3.19203 18.1809 3.0918 18.1414 2.99828C18.102 2.90476 18.0442 2.81979 17.9713 2.74822C17.8984 2.67664 17.8119 2.61987 17.7167 2.58113C17.6215 2.54239 17.5195 2.52246 17.4164 2.52246H15.6869C15.5181 1.91308 15.1499 1.37516 14.6391 0.991661C14.1283 0.608162 13.5032 0.400391 12.8602 0.400391C12.2172 0.400391 11.5921 0.608162 11.0813 0.991661C10.5704 1.37516 10.2023 1.91308 10.0335 2.52246H0.985942C0.882885 2.52246 0.780836 2.54239 0.685624 2.58113C0.590411 2.61987 0.503899 2.67664 0.431026 2.74822C0.358153 2.81979 0.300347 2.90476 0.260909 2.99828C0.221471 3.0918 0.201172 3.19203 0.201172 3.29325C0.201172 3.39447 0.221471 3.4947 0.260909 3.58822C0.300347 3.68173 0.358153 3.7667 0.431026 3.83828C0.503899 3.90985 0.590411 3.96663 0.685624 4.00537C0.780836 4.0441 0.882885 4.06404 0.985942 4.06404ZM12.8764 1.94277C13.1482 1.94445 13.4133 2.02519 13.6384 2.17478C13.8634 2.32438 14.0383 2.53613 14.1409 2.78329C14.2435 3.03045 14.2693 3.30193 14.2149 3.56345C14.1605 3.82496 14.0285 4.06479 13.8354 4.25264C13.6423 4.44049 13.3969 4.56793 13.1302 4.61887C12.8634 4.66982 12.5873 4.64197 12.3366 4.53887C12.0859 4.43576 11.872 4.262 11.7218 4.03955C11.5716 3.81709 11.4919 3.55592 11.4928 3.289C11.4936 3.11137 11.5301 2.93565 11.6001 2.77187C11.6701 2.60808 11.7722 2.45944 11.9007 2.33443C12.0292 2.20942 12.1815 2.11049 12.3489 2.04329C12.5163 1.97609 12.6956 1.94193 12.8764 1.94277Z" fill="white"/>
<path d="M17.4164 8.95172H8.36019C8.19221 8.34239 7.82444 7.80432 7.31371 7.42066C6.80299 7.037 6.17774 6.8291 5.53459 6.8291C4.89143 6.8291 4.26618 7.037 3.75546 7.42066C3.24473 7.80432 2.87696 8.34239 2.70898 8.95172H0.985942C0.777808 8.95172 0.578199 9.03287 0.431026 9.17732C0.283853 9.32176 0.201172 9.51768 0.201172 9.72196C0.201172 9.92624 0.283853 10.1222 0.431026 10.2666C0.578199 10.411 0.777808 10.4922 0.985942 10.4922H2.71546C2.88345 11.1015 3.25122 11.6396 3.76194 12.0233C4.27267 12.4069 4.89792 12.6148 5.54107 12.6148C6.18422 12.6148 6.80947 12.4069 7.3202 12.0233C7.83092 11.6396 8.19869 11.1015 8.36668 10.4922H17.4164C17.6245 10.4922 17.8241 10.411 17.9713 10.2666C18.1185 10.1222 18.2012 9.92624 18.2012 9.72196C18.2012 9.51768 18.1185 9.32176 17.9713 9.17732C17.8241 9.03287 17.6245 8.95172 17.4164 8.95172ZM5.52594 11.0715C5.25437 11.0698 4.98939 10.9892 4.76442 10.8399C4.53944 10.6906 4.36456 10.4793 4.26181 10.2325C4.15907 9.98581 4.13307 9.71474 4.1871 9.45352C4.24112 9.1923 4.37275 8.95263 4.56539 8.76475C4.75802 8.57687 5.00303 8.44918 5.26951 8.39779C5.53599 8.3464 5.812 8.37362 6.06274 8.47601C6.31348 8.57839 6.52771 8.75136 6.67842 8.9731C6.82912 9.19484 6.90955 9.45541 6.90956 9.72196C6.90927 9.89982 6.87323 10.0759 6.80349 10.24C6.73375 10.4042 6.63169 10.5532 6.50315 10.6786C6.37461 10.804 6.22212 10.9032 6.05444 10.9706C5.88675 11.038 5.70715 11.0723 5.52594 11.0715Z" fill="white"/>
<path d="M17.4164 15.3809H15.6869C15.5181 14.7715 15.1499 14.2336 14.6391 13.8501C14.1283 13.4666 13.5032 13.2588 12.8602 13.2588C12.2172 13.2588 11.5921 13.4666 11.0813 13.8501C10.5704 14.2336 10.2023 14.7715 10.0335 15.3809H0.985942C0.777808 15.3809 0.578199 15.4621 0.431026 15.6066C0.283853 15.7512 0.201172 15.9472 0.201172 16.1516C0.201172 16.3561 0.283853 16.5521 0.431026 16.6967C0.578199 16.8412 0.777808 16.9224 0.985942 16.9224H10.04C10.2087 17.5318 10.5769 18.0697 11.0878 18.4532C11.5986 18.8367 12.2237 19.0445 12.8667 19.0445C13.5096 19.0445 14.1348 18.8367 14.6456 18.4532C15.1564 18.0697 15.5246 17.5318 15.6934 16.9224H17.4164C17.6245 16.9224 17.8241 16.8412 17.9713 16.6967C18.1185 16.5521 18.2012 16.3561 18.2012 16.1516C18.2012 15.9472 18.1185 15.7512 17.9713 15.6066C17.8241 15.4621 17.6245 15.3809 17.4164 15.3809ZM12.8764 17.5042C12.604 17.5059 12.3372 17.4281 12.1099 17.2806C11.8827 17.1332 11.7051 16.9227 11.5997 16.676C11.4944 16.4293 11.4661 16.1573 11.5183 15.8948C11.5706 15.6322 11.701 15.3908 11.8932 15.2011C12.0854 15.0115 12.3306 14.8822 12.5976 14.8296C12.8647 14.7771 13.1417 14.8036 13.3934 14.9059C13.6451 15.0082 13.8602 15.1816 14.0114 15.4042C14.1627 15.6267 14.2431 15.8883 14.2427 16.1559C14.2405 16.5115 14.0959 16.852 13.8403 17.1039C13.5847 17.3557 13.2385 17.4988 12.8764 17.5021V17.5042Z" fill="white"/>
</svg>
