<svg width="18" height="14" viewBox="0 0 18 14" fill="none" xmlns="http://www.w3.org/2000/svg">
<path d="M9.02295 13.9351H2.54007C0.909877 13.9351 0.0189558 13.0252 0.0189558 11.4139V4.77942C0.0189558 4.60882 -0.0568673 4.38135 0.0947789 4.28657C0.284337 4.19179 0.435983 4.38135 0.606585 4.47613C2.7865 5.8599 4.96641 7.22472 7.14633 8.60849C8.05621 9.19612 9.00399 9.44254 10.0466 9.19612C10.5015 9.10134 10.8617 8.87387 11.2029 8.62745C13.288 7.26263 15.3352 5.89781 17.4204 4.533C17.572 4.43822 17.6857 4.22971 17.8943 4.3624C18.0459 4.45718 17.9701 4.66569 17.9701 4.81734V11.4898C17.9701 12.9304 17.0033 13.8972 15.5627 13.9161C13.4017 13.954 11.2218 13.9351 9.02295 13.9351Z" fill="white"/>
<path d="M8.98498 0.0595703H15.6574C16.8137 0.0595703 17.7236 0.77989 17.97 1.89828C18.0458 2.23948 17.989 2.46695 17.6667 2.69442C15.1456 4.32462 12.6055 5.99273 10.0844 7.66084C9.51574 8.03995 8.92811 8.03995 8.34048 7.66084C5.68667 5.97377 3.03286 4.28671 0.360096 2.59964C-0.0190193 2.37217 -0.0379751 2.08784 0.0568038 1.72768C0.322185 0.741979 1.21311 0.0595703 2.25567 0.0595703C4.53037 0.0595703 6.76715 0.0595703 8.98498 0.0595703Z" fill="white"/>
</svg>
