<svg width="18" height="18" viewBox="0 0 18 18" fill="none" xmlns="http://www.w3.org/2000/svg">
<path fill-rule="evenodd" clip-rule="evenodd" d="M10.3287 0C8.36332 0 6.39752 0.746333 4.90283 2.24101C2.12853 5.01532 1.93008 9.41195 4.30523 12.4196L0.264392 16.4604C0.180583 16.544 0.114091 16.6433 0.0687219 16.7527C0.0233532 16.862 0 16.9792 0 17.0976C0 17.2159 0.0233532 17.3332 0.0687219 17.4425C0.114091 17.5518 0.180583 17.6511 0.264392 17.7347C0.348018 17.8188 0.447437 17.8855 0.556931 17.931C0.666426 17.9766 0.783839 18 0.90242 18C1.021 18 1.13842 17.9766 1.24791 17.931C1.35741 17.8855 1.45682 17.8188 1.54045 17.7347L5.58129 13.6939C8.58938 16.0655 12.9853 15.8708 15.7581 13.098C18.7475 10.1087 18.7439 5.23037 15.7545 2.24101C14.2598 0.746333 12.2941 0 10.3287 0ZM10.3305 1.78578C11.8325 1.78461 13.3348 2.35926 14.4856 3.51004C16.7872 5.81158 16.7872 9.52219 14.4856 11.8237C12.1841 14.1253 8.47697 14.1218 6.17543 11.8203C3.87388 9.51879 3.87388 5.81697 6.17543 3.51542C7.3262 2.36465 8.82849 1.78695 10.3305 1.78578Z" fill="#5F6383"/>
</svg>
