<svg width="40" height="40" viewBox="0 0 40 40" fill="none" xmlns="http://www.w3.org/2000/svg">
<rect width="40" height="40" rx="20" fill="#F2F2FD"/>
<path d="M19.9998 10.4004C21.3613 10.4004 22.4734 11.4725 22.5358 12.8172C24.9081 13.8204 26.5055 16.1608 26.5055 18.81V22.1486C27.569 22.2301 28.4097 23.1203 28.4097 24.2053V25.4756C28.4097 26.0896 27.9111 26.5855 27.2981 26.5855H12.7014C12.087 26.5855 11.5898 26.0894 11.5898 25.4756V24.2053C11.5898 23.1216 12.4295 22.2302 13.494 22.1486V18.81C13.494 16.162 15.0918 13.8212 17.4637 12.8176C17.5259 11.4724 18.6392 10.4004 19.9998 10.4004ZM26.8229 24.9987V24.2053C26.8229 23.9437 26.6081 23.7293 26.3462 23.7293C25.5578 23.7293 24.9188 23.0902 24.9188 22.3018V18.81C24.9188 16.6561 23.522 14.7719 21.5031 14.1249L20.9518 13.9483V12.9365C20.9518 12.4132 20.5253 11.9872 19.9998 11.9872C19.4748 11.9872 19.0477 12.4133 19.0477 12.9365V13.9484L18.4966 14.1251C16.4781 14.7725 15.0808 16.6574 15.0808 18.81V22.3018C15.0808 23.09 14.4407 23.7293 13.6533 23.7293C13.3912 23.7293 13.1766 23.9441 13.1766 24.2053V24.9987H26.8229ZM16.9849 26.5855H18.5717C18.5717 27.3742 19.211 28.0136 19.9998 28.0136C20.7885 28.0136 21.4279 27.3742 21.4279 26.5855H23.0146C23.0146 28.2506 21.6648 29.6004 19.9998 29.6004C18.3347 29.6004 16.9849 28.2506 16.9849 26.5855Z" fill="#4E18A5"/>
</svg>
