<svg width="150" height="49" viewBox="0 0 150 49" fill="none" xmlns="http://www.w3.org/2000/svg">
<path fill-rule="evenodd" clip-rule="evenodd" d="M1.78511 36.9071C4.94506 43.893 11.9559 48.75 20.1041 48.75C31.2107 48.75 40.2083 39.7217 40.2083 28.5933V26.8035L33.5861 33.2481C31.2107 35.5648 27.3166 35.139 25.4883 32.3749C23.9983 30.116 24.4374 27.0922 26.5176 25.3601L32.7511 20.164L25.8554 17.8834C25.0636 17.6236 24.6389 16.772 24.898 15.9782C25.1572 15.1843 26.0065 14.7585 26.7983 15.0183L34.3131 17.5009C36.2853 18.1504 36.7748 20.7341 35.1768 22.062L28.4395 27.6767C27.5397 28.4273 27.3526 29.7263 27.9932 30.7078C28.785 31.9058 30.4621 32.0862 31.4914 31.0831L40.2083 22.6033V15.2493L23.8615 9.89434C22.7242 9.51906 21.5509 10.3707 21.5509 11.5759L21.5581 35.1101C21.5581 38.1412 18.7869 40.4073 15.8285 39.7939L1.78511 36.9071ZM0 21.4413V0H40.2083V12.0811L24.7973 7.03645C21.7165 6.02609 18.5422 8.32827 18.5494 11.5831L18.5566 35.1173C18.5566 36.2359 17.5344 37.0731 16.4403 36.8494L0.619032 33.5873C0.215941 31.9924 0 30.3181 0 28.5933V26.0096L8.88958 15.8555C9.72456 14.8956 11.2289 14.9534 11.9919 15.9709C12.5678 16.7432 12.5246 17.8113 11.8768 18.5257L5.04583 26.1034C3.62781 27.6767 4.52757 30.1954 6.6222 30.5057L14.72 31.7182C15.5406 31.8409 16.3108 31.2707 16.4331 30.448C16.5555 29.6253 15.9869 28.8603 15.1663 28.7304L7.7379 27.619L14.1154 20.5392C15.7277 18.7494 15.8429 16.0648 14.3961 14.1451C12.4814 11.6047 8.72403 11.4676 6.6294 13.8564L0 21.4413Z" fill="#4E18A5"/>
<path d="M145.379 22.0625V9.1226H147.819V22.0697H145.379V22.0625ZM132.991 19.3706V17.09H139.808V19.3706H132.991ZM130.623 22.0625L134.568 9.11538H138.21L142.155 22.0625H139.642L136.13 10.6454H136.598L133.135 22.0625H130.623ZM117.912 22.3367C116.954 22.3367 116.09 22.1707 115.32 21.8315C114.557 21.4923 113.924 21.0016 113.427 20.3737C112.938 19.7386 112.628 18.9809 112.491 18.1076L115.04 17.7323C115.22 18.4757 115.587 19.0458 116.148 19.4499C116.71 19.8541 117.35 20.0489 118.07 20.0489C118.473 20.0489 118.862 19.984 119.236 19.8613C119.61 19.7386 119.92 19.551 120.157 19.3056C120.402 19.0602 120.524 18.7571 120.524 18.3963C120.524 18.2664 120.503 18.1365 120.46 18.021C120.424 17.8983 120.359 17.7756 120.273 17.6674C120.186 17.5591 120.057 17.4581 119.884 17.3643C119.725 17.2704 119.517 17.1838 119.265 17.1045L115.911 16.1158C115.659 16.0436 115.363 15.9425 115.032 15.8126C114.701 15.6827 114.385 15.4951 114.075 15.2497C113.766 15.0044 113.506 14.6796 113.298 14.2754C113.096 13.8713 112.995 13.3589 112.995 12.7383C112.995 11.8722 113.211 11.1505 113.65 10.5732C114.089 9.99584 114.672 9.57004 115.399 9.28859C116.126 9.00713 116.933 8.87001 117.818 8.87722C118.711 8.89166 119.502 9.04321 120.201 9.3391C120.899 9.635 121.489 10.0608 121.957 10.6237C122.432 11.1794 122.77 11.865 122.979 12.6733L120.345 13.1207C120.251 12.7022 120.071 12.3485 119.812 12.0599C119.553 11.7712 119.25 11.5547 118.891 11.4031C118.538 11.2516 118.171 11.1722 117.782 11.1578C117.401 11.1433 117.041 11.2011 116.695 11.3165C116.364 11.432 116.083 11.598 115.867 11.8217C115.659 12.0454 115.551 12.3052 115.551 12.6156C115.551 12.897 115.637 13.128 115.81 13.3084C115.983 13.4816 116.198 13.6259 116.465 13.7342C116.731 13.8424 116.997 13.929 117.271 14.0012L119.51 14.6146C119.841 14.7012 120.215 14.8239 120.618 14.9755C121.021 15.1198 121.41 15.3219 121.784 15.5889C122.158 15.8487 122.468 16.1879 122.705 16.6137C122.95 17.0395 123.073 17.5808 123.073 18.2303C123.073 18.9231 122.929 19.5366 122.633 20.0562C122.346 20.5686 121.957 21.0016 121.467 21.3408C120.978 21.6727 120.424 21.9253 119.797 22.0985C119.207 22.2501 118.567 22.3367 117.912 22.3367ZM101.176 19.3706V17.09H107.993V19.3706H101.176ZM98.808 22.0625L102.753 9.11538H106.395L110.339 22.0625H107.827L104.314 10.6454H104.782L101.32 22.0625H98.808ZM88.7019 15.3941H91.6099C91.7323 15.3941 91.8763 15.3868 92.0202 15.3796C92.1714 15.3652 92.3082 15.3435 92.4305 15.3075C92.7616 15.2209 93.0136 15.0693 93.1935 14.86C93.3735 14.6435 93.4958 14.4054 93.5606 14.1528C93.6326 13.8857 93.6686 13.6404 93.6686 13.4094C93.6686 13.1785 93.6326 12.9331 93.5606 12.6733C93.4958 12.4063 93.3735 12.1753 93.1935 11.966C93.0136 11.7495 92.7616 11.598 92.4305 11.5042C92.3082 11.4681 92.1642 11.4464 92.0202 11.432C91.8691 11.4176 91.7323 11.4176 91.6099 11.4176H88.7019V15.3941ZM93.539 22.0625L90.9909 16.7941L93.503 16.3106L96.3031 22.0625H93.539ZM86.2618 22.0625V9.1226H91.7107C91.8331 9.1226 92.0058 9.12981 92.2146 9.13703C92.4305 9.14425 92.6177 9.15868 92.7904 9.18755C93.5606 9.31024 94.194 9.56283 94.6835 9.95254C95.1802 10.3422 95.5473 10.833 95.7776 11.4248C96.0079 12.0093 96.1303 12.6661 96.1303 13.395C96.1303 14.4775 95.864 15.4085 95.3241 16.1807C94.7843 16.9457 93.9421 17.422 92.7976 17.6024L91.7251 17.6746H88.7091V22.0625H86.2618ZM74.0539 19.3706V17.09H80.8705V19.3706H74.0539ZM71.6858 22.0625L75.6303 9.11538H79.2725L83.217 22.0625H80.7049L77.1923 10.6454H77.6601L74.1979 22.0625H71.6858ZM63.9983 22.3367C63.0409 22.3367 62.1771 22.1707 61.407 21.8315C60.644 21.4923 60.0105 21.0016 59.5139 20.3737C59.0244 19.7386 58.7149 18.9809 58.5781 18.1076L61.1262 17.7323C61.3062 18.4757 61.6733 19.0458 62.2347 19.4499C62.7962 19.8541 63.4368 20.0489 64.1566 20.0489C64.5597 20.0489 64.9484 19.984 65.3227 19.8613C65.697 19.7386 66.0065 19.551 66.244 19.3056C66.4888 19.0602 66.6111 18.7571 66.6111 18.3963C66.6111 18.2664 66.5895 18.1365 66.5464 18.021C66.5104 17.8983 66.4456 17.7756 66.3592 17.6674C66.2728 17.5591 66.1433 17.4581 65.9705 17.3643C65.8122 17.2704 65.6034 17.1838 65.3515 17.1045L61.9972 16.1158C61.7453 16.0436 61.4501 15.9425 61.119 15.8126C60.7879 15.6827 60.4712 15.4951 60.1617 15.2497C59.8522 15.0044 59.5931 14.6796 59.3843 14.2754C59.1828 13.8713 59.082 13.3589 59.082 12.7383C59.082 11.8722 59.2979 11.1505 59.737 10.5732C60.1761 9.99584 60.7591 9.57004 61.4861 9.28859C62.2131 9.00713 63.0193 8.87001 63.9047 8.87722C64.7972 8.89166 65.589 9.04321 66.2872 9.3391C66.9854 9.635 67.5757 10.0608 68.0436 10.6237C68.5186 11.1794 68.8569 11.865 69.0657 12.6733L66.4312 13.1207C66.3376 12.7022 66.1577 12.3485 65.9057 12.0599C65.6466 11.7712 65.3443 11.5547 64.9844 11.4031C64.6317 11.2516 64.2646 11.1722 63.8759 11.1578C63.4944 11.1433 63.1345 11.2011 62.789 11.3165C62.4507 11.432 62.1771 11.598 61.9612 11.8217C61.7525 12.0454 61.6445 12.3052 61.6445 12.6156C61.6445 12.897 61.7309 13.128 61.9036 13.3084C62.0764 13.4816 62.2923 13.6259 62.5586 13.7342C62.825 13.8424 63.0913 13.929 63.3648 14.0012L65.6034 14.6146C65.9417 14.7012 66.3088 14.8239 66.7119 14.9755C67.115 15.1198 67.5037 15.3219 67.878 15.5889C68.2523 15.8487 68.5618 16.1879 68.7993 16.6137C69.0441 17.0395 69.1664 17.5808 69.1664 18.2303C69.1664 18.9231 69.0225 19.5366 68.7274 20.0562C68.4394 20.5686 68.0508 21.0016 67.5613 21.3408C67.0718 21.6727 66.5176 21.9253 65.8913 22.0985C65.2939 22.2501 64.6533 22.3367 63.9983 22.3367Z" fill="black"/>
<path d="M145.595 40.6025V33.6094H150V34.4321H146.459V36.6188H149.424V37.4416H146.459V39.7798H150V40.6025H145.595ZM135.971 40.6025V34.4321H133.596V33.6094H139.21V34.4321H136.835V40.6025H135.971ZM124.454 40.7541C123.914 40.7541 123.439 40.6458 123.029 40.4221C122.619 40.1984 122.295 39.8881 122.057 39.4839C121.827 39.0798 121.712 38.6035 121.712 38.0622V33.6238L122.583 33.6166V37.9828C122.583 38.3148 122.64 38.6035 122.748 38.8488C122.864 39.0942 123.007 39.2963 123.195 39.4551C123.382 39.6138 123.583 39.7365 123.799 39.8159C124.022 39.8953 124.246 39.9314 124.461 39.9314C124.685 39.9314 124.908 39.8881 125.131 39.8087C125.354 39.7293 125.556 39.6066 125.736 39.4478C125.923 39.2891 126.067 39.0798 126.175 38.8344C126.283 38.589 126.34 38.3004 126.34 37.9756V33.6094H127.211V38.0478C127.211 38.589 127.096 39.0581 126.858 39.4623C126.628 39.8664 126.304 40.184 125.887 40.4005C125.469 40.617 124.994 40.7541 124.454 40.7541ZM112.081 40.6025V34.4321H109.705V33.6094H115.32V34.4321H112.945V40.6025H112.081ZM102.349 40.6025V33.6094H103.213V40.6025H102.349ZM92.6245 40.6025V34.4321H90.2492V33.6094H95.8636V34.4321H93.4883V40.6025H92.6245ZM81.5899 40.7541C81.0933 40.7541 80.6542 40.6675 80.2511 40.5015C79.8552 40.3355 79.5313 40.0902 79.2722 39.7798C79.0202 39.4695 78.8475 39.0942 78.7755 38.6684L79.6681 38.5313C79.7832 38.9715 80.0136 39.3179 80.3735 39.5633C80.7334 39.8087 81.1508 39.9314 81.6403 39.9314C81.9498 39.9314 82.2378 39.8809 82.4897 39.787C82.7416 39.686 82.9432 39.5417 83.0943 39.3612C83.2455 39.1736 83.3175 38.9571 83.3175 38.7045C83.3175 38.5457 83.2887 38.4158 83.2383 38.3076C83.1879 38.1921 83.1159 38.0983 83.0223 38.0189C82.9288 37.9395 82.828 37.8674 82.7128 37.8168C82.5977 37.7591 82.4753 37.7158 82.3529 37.6797L80.575 37.1529C80.3807 37.0951 80.1935 37.023 80.0136 36.9364C79.8336 36.8426 79.6681 36.7343 79.5313 36.6044C79.3873 36.4673 79.2794 36.3085 79.193 36.1209C79.1066 35.9332 79.0706 35.7023 79.0706 35.4497C79.0706 35.0383 79.1786 34.6847 79.3873 34.3888C79.6033 34.0929 79.8984 33.8692 80.2655 33.7104C80.6326 33.5517 81.0501 33.4795 81.5107 33.4795C81.9786 33.4795 82.3961 33.5661 82.7632 33.7321C83.1375 33.8909 83.4398 34.129 83.6846 34.4321C83.9293 34.7352 84.0948 35.1033 84.1812 35.5219L83.2671 35.6806C83.2167 35.3992 83.1087 35.1538 82.9432 34.9445C82.7776 34.7352 82.5689 34.5765 82.3241 34.4682C82.0722 34.3527 81.8059 34.295 81.5036 34.295C81.2228 34.295 80.9637 34.3383 80.7334 34.4321C80.503 34.5259 80.3231 34.6558 80.1863 34.8218C80.0495 34.9878 79.9848 35.1755 79.9848 35.392C79.9848 35.6085 80.0495 35.7817 80.1719 35.9116C80.2943 36.0415 80.4454 36.1425 80.6254 36.2219C80.8053 36.2941 80.9853 36.359 81.1508 36.4095L82.4753 36.792C82.6264 36.8353 82.7992 36.8931 83.0007 36.9652C83.2023 37.0374 83.3966 37.1457 83.5838 37.2828C83.7709 37.4127 83.9293 37.5931 84.0517 37.8168C84.174 38.0333 84.2388 38.3148 84.2388 38.654C84.2388 38.9932 84.174 39.2891 84.0373 39.5489C83.9077 39.8087 83.7206 40.0324 83.483 40.2056C83.2455 40.3788 82.9648 40.5159 82.648 40.6025C82.2881 40.7036 81.9498 40.7541 81.5899 40.7541ZM66.7692 40.6025V33.6094H67.6401L71.2751 39.0726V33.6094H72.1461V40.6025H71.2751L67.6401 35.1394V40.6025H66.7692ZM58.8369 40.6025V33.6094H59.7007V40.6025H58.8369Z" fill="black"/>
</svg>
