<svg width="18" height="18" viewBox="0 0 18 18" fill="none" xmlns="http://www.w3.org/2000/svg">
<path d="M9.67405 0C6.75988 0 4.18633 1.51385 2.69141 3.78463H2.72925C3.37264 3.78463 3.97818 4.04955 4.41341 4.48479C5.58665 2.85739 7.51681 1.81662 9.67405 1.81662C13.2694 1.81662 16.1836 4.73079 16.1836 8.32618C16.1836 10.4834 15.1239 12.4136 13.5154 13.5868C13.8182 13.8707 14.0264 14.2302 14.1399 14.6465C14.1967 14.8736 14.2156 15.0817 14.2156 15.3088C16.5053 13.8139 18.0002 11.2403 18.0002 8.32618C18.0002 3.74678 14.2724 0 9.67405 0Z" fill="white"/>
<path d="M12.6452 7.41779H10.5637V4.67394C10.5637 4.16301 10.1474 3.76562 9.65538 3.76562C9.14446 3.76562 8.74707 4.18193 8.74707 4.67394V8.34503C8.74707 8.85595 9.16338 9.25334 9.65538 9.25334H12.6263C13.1372 9.25334 13.5346 8.83703 13.5346 8.34503C13.5535 7.8341 13.1372 7.41779 12.6452 7.41779Z" fill="white"/>
<path d="M12.1717 14.5135L9.59813 13.1889C9.23859 12.9997 8.78444 13.0943 8.53844 13.416L7.59228 14.6271C6.66504 14.1351 5.96489 13.662 5.15119 12.8483C4.28073 11.9778 3.82657 11.2777 3.35349 10.3694L4.54565 9.44213C4.86735 9.19613 4.96196 8.74197 4.77273 8.38243L3.44811 5.82781C3.22103 5.37365 2.63441 5.22227 2.21811 5.50612L0.571792 6.60366C0.193329 6.84966 -0.033749 7.30381 0.00409732 7.75797C0.0419436 8.23105 0.0987131 8.81767 0.193329 9.23398C0.666407 11.0695 1.82072 12.9618 3.42919 14.5703C5.03765 16.1788 6.92997 17.3331 8.76551 17.8062C9.18182 17.9197 9.76844 17.9765 10.2415 17.9954C10.6957 18.0332 11.1498 17.8062 11.3958 17.4088L12.4555 15.7435C12.7772 15.3083 12.6258 14.7406 12.1717 14.5135Z" fill="white"/>
</svg>
