<svg width="20" height="20" viewBox="0 0 20 20" fill="none" xmlns="http://www.w3.org/2000/svg">
<mask id="path-1-outside-1_1497_3078" maskUnits="userSpaceOnUse" x="0" y="0" width="20" height="20" fill="black">
<rect fill="white" width="20" height="20"/>
<path d="M15.0638 3.37911V5.69173L15.2284 5.92773C15.2298 5.92973 15.2312 5.93173 15.2326 5.93393C15.2568 5.97113 15.285 6.01013 15.3148 6.05173C15.4344 6.21793 15.5834 6.42473 15.5834 6.67653C15.5834 7.09173 15.2456 7.42974 14.8302 7.42974C14.4147 7.42974 14.0769 7.09193 14.0769 6.67653C14.0769 6.42013 14.2301 6.20873 14.3533 6.03893C14.3807 6.00113 14.4067 5.96553 14.4293 5.93153L14.4319 5.92773L14.5966 5.69173V3.73892L12.8411 4.51872V5.82733C12.8411 7.37314 11.6243 8.63654 10.1073 8.69354C11.2985 8.71754 12.4571 9.14135 13.3805 9.89295C13.4807 9.97435 13.4957 10.1218 13.4143 10.2218C13.3681 10.2786 13.3007 10.308 13.2329 10.308C13.1811 10.308 13.1289 10.2908 13.0855 10.2556C12.2175 9.54895 11.1219 9.15995 10.0005 9.15995C8.91509 9.15995 7.88728 9.50795 7.02807 10.1666C6.92567 10.2452 6.77886 10.2258 6.70026 10.1232C6.62166 10.0208 6.64106 9.87395 6.74346 9.79535C7.65607 9.09595 8.74229 8.71614 9.8909 8.69334C8.37508 8.63494 7.15947 7.37214 7.15947 5.82713V4.51852L5.07524 3.59271C4.99084 3.55511 4.93644 3.47151 4.93644 3.37911C4.93644 3.28671 4.99084 3.20291 5.07524 3.16551L9.9051 1.0201C9.9655 0.9933 10.0345 0.9933 10.0949 1.0201L14.925 3.16551C15.0094 3.20291 15.0638 3.28671 15.0638 3.37911ZM7.62667 5.28952C8.22888 5.00832 9.28289 4.91992 9.9999 4.91992C10.7169 4.91992 11.7709 5.00812 12.3731 5.28952V4.00672C12.3535 3.98052 12.2279 3.84412 11.6787 3.71812C11.2181 3.61251 10.6219 3.55411 9.9999 3.55411C9.37789 3.55411 8.78169 3.61231 8.32108 3.71812C7.77188 3.84412 7.64627 3.98052 7.62667 4.00672V5.28952ZM9.9999 8.22854C11.3043 8.22854 12.3661 7.15793 12.3727 5.83973C12.3521 5.81273 12.2253 5.67693 11.6785 5.55153C11.2179 5.44572 10.6217 5.38752 9.9997 5.38752C9.37769 5.38752 8.78149 5.44572 8.32088 5.55153C7.77407 5.67693 7.64727 5.81273 7.62667 5.83973C7.63367 7.15813 8.69549 8.22854 9.9999 8.22854ZM1.2336 1.97911H4.7662C4.8952 1.97911 5 2.08371 5 2.21291C5 2.34211 4.8954 2.44671 4.7662 2.44671H1.46741V16.1598H4.90064V15.5138C4.82424 15.5028 4.74884 15.4862 4.67524 15.4634C4.57744 15.433 4.51064 15.3426 4.51064 15.2402V12.8718C4.51064 12.7694 4.57724 12.6788 4.67524 12.6486C4.74884 12.6258 4.82424 12.6092 4.90064 12.5982V11.201C4.90064 11.1242 4.93844 11.0522 5.00184 11.0084C5.06524 10.9648 5.14585 10.955 5.21785 10.9824L5.63645 11.142V10.5594C5.63645 10.4826 5.67425 10.4106 5.73765 10.3668C5.80105 10.3232 5.88165 10.3134 5.95365 10.3408L9.9999 11.8838L14.0465 10.341C14.1183 10.3136 14.1991 10.3232 14.2625 10.367C14.3259 10.4106 14.3637 10.4826 14.3637 10.5596V11.1422L14.7822 10.9826C14.854 10.9552 14.9348 10.9648 14.9982 11.0086C15.0616 11.0522 15.0994 11.1242 15.0994 11.2012V12.5984C15.1758 12.6094 15.251 12.626 15.3248 12.6488C15.4226 12.6792 15.4894 12.7696 15.4894 12.872V15.2404C15.4894 15.3428 15.4228 15.4334 15.3248 15.4636C15.2512 15.4864 15.1758 15.503 15.0994 15.514V16.16H18.5324V2.44671H15.2338C15.1048 2.44671 15 2.34211 15 2.21291C15 2.08371 15.1046 1.97911 15.2338 1.97911H18.7662C18.8954 1.97911 19 2.08391 19 2.21291V16.3936C19 16.5226 18.8954 16.6274 18.7662 16.6274H15.0992V16.9112C15.0992 17.0082 15.0394 17.095 14.9488 17.1296L10.0833 18.9846C10.0563 18.9948 10.0281 19 9.9999 19C9.9717 19 9.9435 18.9948 9.9167 18.9846L5.05125 17.1296C4.96064 17.095 4.90084 17.0082 4.90084 16.9112V16.6274H1.2338C1.1048 16.6274 1 16.5228 1 16.3936V2.21291C0.9998 2.08391 1.1044 1.97911 1.2336 1.97911ZM9.9167 12.3524L6.13126 10.909C6.12206 10.9086 6.11286 10.9082 6.10386 10.9066V11.32L9.9999 12.8056L13.8959 11.32V10.9066C13.8869 10.9082 13.8777 10.9086 13.8685 10.909L10.0831 12.3524C10.0295 12.3728 9.9703 12.3728 9.9167 12.3524Z"/>
</mask>
<path d="M15.0638 3.37911V5.69173L15.2284 5.92773C15.2298 5.92973 15.2312 5.93173 15.2326 5.93393C15.2568 5.97113 15.285 6.01013 15.3148 6.05173C15.4344 6.21793 15.5834 6.42473 15.5834 6.67653C15.5834 7.09173 15.2456 7.42974 14.8302 7.42974C14.4147 7.42974 14.0769 7.09193 14.0769 6.67653C14.0769 6.42013 14.2301 6.20873 14.3533 6.03893C14.3807 6.00113 14.4067 5.96553 14.4293 5.93153L14.4319 5.92773L14.5966 5.69173V3.73892L12.8411 4.51872V5.82733C12.8411 7.37314 11.6243 8.63654 10.1073 8.69354C11.2985 8.71754 12.4571 9.14135 13.3805 9.89295C13.4807 9.97435 13.4957 10.1218 13.4143 10.2218C13.3681 10.2786 13.3007 10.308 13.2329 10.308C13.1811 10.308 13.1289 10.2908 13.0855 10.2556C12.2175 9.54895 11.1219 9.15995 10.0005 9.15995C8.91509 9.15995 7.88728 9.50795 7.02807 10.1666C6.92567 10.2452 6.77886 10.2258 6.70026 10.1232C6.62166 10.0208 6.64106 9.87395 6.74346 9.79535C7.65607 9.09595 8.74229 8.71614 9.8909 8.69334C8.37508 8.63494 7.15947 7.37214 7.15947 5.82713V4.51852L5.07524 3.59271C4.99084 3.55511 4.93644 3.47151 4.93644 3.37911C4.93644 3.28671 4.99084 3.20291 5.07524 3.16551L9.9051 1.0201C9.9655 0.9933 10.0345 0.9933 10.0949 1.0201L14.925 3.16551C15.0094 3.20291 15.0638 3.28671 15.0638 3.37911ZM7.62667 5.28952C8.22888 5.00832 9.28289 4.91992 9.9999 4.91992C10.7169 4.91992 11.7709 5.00812 12.3731 5.28952V4.00672C12.3535 3.98052 12.2279 3.84412 11.6787 3.71812C11.2181 3.61251 10.6219 3.55411 9.9999 3.55411C9.37789 3.55411 8.78169 3.61231 8.32108 3.71812C7.77188 3.84412 7.64627 3.98052 7.62667 4.00672V5.28952ZM9.9999 8.22854C11.3043 8.22854 12.3661 7.15793 12.3727 5.83973C12.3521 5.81273 12.2253 5.67693 11.6785 5.55153C11.2179 5.44572 10.6217 5.38752 9.9997 5.38752C9.37769 5.38752 8.78149 5.44572 8.32088 5.55153C7.77407 5.67693 7.64727 5.81273 7.62667 5.83973C7.63367 7.15813 8.69549 8.22854 9.9999 8.22854ZM1.2336 1.97911H4.7662C4.8952 1.97911 5 2.08371 5 2.21291C5 2.34211 4.8954 2.44671 4.7662 2.44671H1.46741V16.1598H4.90064V15.5138C4.82424 15.5028 4.74884 15.4862 4.67524 15.4634C4.57744 15.433 4.51064 15.3426 4.51064 15.2402V12.8718C4.51064 12.7694 4.57724 12.6788 4.67524 12.6486C4.74884 12.6258 4.82424 12.6092 4.90064 12.5982V11.201C4.90064 11.1242 4.93844 11.0522 5.00184 11.0084C5.06524 10.9648 5.14585 10.955 5.21785 10.9824L5.63645 11.142V10.5594C5.63645 10.4826 5.67425 10.4106 5.73765 10.3668C5.80105 10.3232 5.88165 10.3134 5.95365 10.3408L9.9999 11.8838L14.0465 10.341C14.1183 10.3136 14.1991 10.3232 14.2625 10.367C14.3259 10.4106 14.3637 10.4826 14.3637 10.5596V11.1422L14.7822 10.9826C14.854 10.9552 14.9348 10.9648 14.9982 11.0086C15.0616 11.0522 15.0994 11.1242 15.0994 11.2012V12.5984C15.1758 12.6094 15.251 12.626 15.3248 12.6488C15.4226 12.6792 15.4894 12.7696 15.4894 12.872V15.2404C15.4894 15.3428 15.4228 15.4334 15.3248 15.4636C15.2512 15.4864 15.1758 15.503 15.0994 15.514V16.16H18.5324V2.44671H15.2338C15.1048 2.44671 15 2.34211 15 2.21291C15 2.08371 15.1046 1.97911 15.2338 1.97911H18.7662C18.8954 1.97911 19 2.08391 19 2.21291V16.3936C19 16.5226 18.8954 16.6274 18.7662 16.6274H15.0992V16.9112C15.0992 17.0082 15.0394 17.095 14.9488 17.1296L10.0833 18.9846C10.0563 18.9948 10.0281 19 9.9999 19C9.9717 19 9.9435 18.9948 9.9167 18.9846L5.05125 17.1296C4.96064 17.095 4.90084 17.0082 4.90084 16.9112V16.6274H1.2338C1.1048 16.6274 1 16.5228 1 16.3936V2.21291C0.9998 2.08391 1.1044 1.97911 1.2336 1.97911ZM9.9167 12.3524L6.13126 10.909C6.12206 10.9086 6.11286 10.9082 6.10386 10.9066V11.32L9.9999 12.8056L13.8959 11.32V10.9066C13.8869 10.9082 13.8777 10.9086 13.8685 10.909L10.0831 12.3524C10.0295 12.3728 9.9703 12.3728 9.9167 12.3524Z" fill="white"/>
<path d="M6.10646 12.9698L6.0727 13.0066L6.05646 12.9918V12.9698H6.10646ZM5.36825 16.75L5.35044 16.7967L5.31825 16.7844V16.75H5.36825ZM9.9999 18.516L10.0177 18.5627L9.9999 18.5695L9.98209 18.5627L9.9999 18.516ZM14.6316 16.75H14.6816V16.7844L14.6494 16.7967L14.6316 16.75ZM14.6316 15.5064L14.6402 15.4571L14.6816 15.4644V15.5064H14.6316ZM14.6316 12.6052H14.6816V12.6471L14.6402 12.6544L14.6316 12.6052ZM14.6316 11.54L14.6137 11.4932L14.6816 11.4674V11.54H14.6316ZM10.2337 13.2168H10.1837V13.1823L10.2159 13.17L10.2337 13.2168ZM9.7661 13.2168L9.78391 13.17L9.8161 13.1823V13.2168H9.7661ZM5.36825 11.54H5.31825V11.4674L5.38606 11.4932L5.36825 11.54ZM5.36825 12.6052L5.35962 12.6544L5.31825 12.6472V12.6052H5.36825ZM5.63905 12.6802H5.68905V12.7529L5.62115 12.7269L5.63905 12.6802ZM5.96485 12.1154L5.94515 12.1613L5.94513 12.1613L5.96485 12.1154ZM9.35369 13.5686L9.33402 13.6145L9.33399 13.6145L9.35369 13.5686ZM5.36825 15.5064H5.31825V15.4644L5.35958 15.4571L5.36825 15.5064ZM6.15646 12.6848V12.9698H6.05646V12.6848H6.15646ZM6.14022 12.9329C6.25996 13.0425 6.36188 13.1711 6.44168 13.3135L6.35444 13.3624C6.27983 13.2292 6.18456 13.109 6.0727 13.0066L6.14022 12.9329ZM13.3162 13.105C13.3113 13.1547 13.3113 13.1547 13.3113 13.1547C13.3113 13.1547 13.3113 13.1547 13.3113 13.1547C13.3113 13.1547 13.3113 13.1547 13.3112 13.1547C13.3112 13.1547 13.3112 13.1547 13.3112 13.1547C13.3112 13.1547 13.3111 13.1547 13.311 13.1547C13.3109 13.1547 13.3106 13.1547 13.3103 13.1546C13.3097 13.1546 13.3087 13.1545 13.3075 13.1544C13.3051 13.1541 13.3015 13.1538 13.2971 13.1534C13.2882 13.1526 13.2759 13.1515 13.2622 13.1504C13.2343 13.1482 13.2027 13.1462 13.1824 13.1462V13.0462C13.2071 13.0462 13.2423 13.0485 13.2701 13.0507C13.2843 13.0518 13.297 13.053 13.3062 13.0538C13.3107 13.0542 13.3145 13.0546 13.317 13.0548C13.3183 13.0549 13.3193 13.055 13.32 13.0551C13.3204 13.0551 13.3206 13.0552 13.3208 13.0552C13.3209 13.0552 13.321 13.0552 13.321 13.0552C13.3211 13.0552 13.3211 13.0552 13.3211 13.0552C13.3211 13.0552 13.3211 13.0552 13.3211 13.0552C13.3211 13.0552 13.3211 13.0552 13.3211 13.0552C13.3211 13.0552 13.3211 13.0552 13.3162 13.105ZM5.38606 16.7033L10.0177 18.4693L9.98209 18.5627L5.35044 16.7967L5.38606 16.7033ZM9.98209 18.4693L14.6137 16.7033L14.6494 16.7967L10.0177 18.5627L9.98209 18.4693ZM14.5816 16.75V15.5064H14.6816V16.75H14.5816ZM14.6229 15.5556C13.9088 15.4299 13.3643 14.8055 13.3643 14.0558H13.4643C13.4643 14.756 13.973 15.3397 14.6402 15.4571L14.6229 15.5556ZM13.3643 14.0558C13.3643 13.306 13.9088 12.6816 14.6229 12.5559L14.6402 12.6544C13.973 12.7719 13.4643 13.3555 13.4643 14.0558H13.3643ZM14.5816 12.6052V11.54H14.6816V12.6052H14.5816ZM14.6494 11.5867L10.2515 13.2635L10.2159 13.17L14.6137 11.4932L14.6494 11.5867ZM10.2837 13.2168V17.4274H10.1837V13.2168H10.2837ZM10.2837 17.4274C10.2837 17.584 10.1567 17.7112 9.9999 17.7112V17.6112C10.1015 17.6112 10.1837 17.5288 10.1837 17.4274H10.2837ZM9.9999 17.7112C9.84308 17.7112 9.7161 17.5842 9.7161 17.4274H9.8161C9.8161 17.529 9.89831 17.6112 9.9999 17.6112V17.7112ZM9.7161 17.4274V13.2168H9.8161V17.4274H9.7161ZM9.74829 13.2635L5.35044 11.5867L5.38606 11.4932L9.78391 13.17L9.74829 13.2635ZM5.41825 11.54V12.6052H5.31825V11.54H5.41825ZM5.37688 12.5559C5.47372 12.5729 5.56742 12.5992 5.65695 12.6335L5.62115 12.7269C5.53748 12.6948 5.44998 12.6702 5.35962 12.6544L5.37688 12.5559ZM5.58905 12.6802V12.3302H5.68905V12.6802H5.58905ZM5.58905 12.3302C5.58905 12.2348 5.63685 12.1457 5.71655 12.0932L5.77155 12.1767C5.72006 12.2106 5.68905 12.2683 5.68905 12.3302H5.58905ZM5.71655 12.0932C5.79618 12.0408 5.89692 12.0318 5.98458 12.0694L5.94513 12.1613C5.88839 12.1369 5.82313 12.1428 5.77155 12.1767L5.71655 12.0932ZM5.98456 12.0694L9.3734 13.5226L9.33399 13.6145L5.94515 12.1613L5.98456 12.0694ZM9.37336 13.5226C9.47782 13.5673 9.54529 13.67 9.54529 13.7834H9.44529C9.44529 13.7099 9.40157 13.6434 9.33402 13.6145L9.37336 13.5226ZM6.62907 13.9198C6.63297 13.9643 6.63546 14.0096 6.63546 14.0558H6.53546C6.53546 14.0132 6.53316 13.9709 6.52945 13.9285L6.62907 13.9198ZM6.63546 14.0558C6.63546 14.8055 6.09095 15.4299 5.37692 15.5556L5.35958 15.4571C6.02676 15.3397 6.53546 14.756 6.53546 14.0558H6.63546ZM5.41825 15.5064V16.75H5.31825V15.5064H5.41825ZM15.0638 5.69173L14.9817 5.74893L14.9638 5.72315V5.69173H15.0638ZM15.2284 5.92773L15.1464 5.98507L15.1463 5.98493L15.2284 5.92773ZM15.2326 5.93393L15.1487 5.98846L15.1482 5.98762L15.2326 5.93393ZM15.3148 6.05173L15.2336 6.11014L15.2335 6.10996L15.3148 6.05173ZM14.3533 6.03893L14.4343 6.09762L14.4343 6.09765L14.3533 6.03893ZM14.4293 5.93153L14.3461 5.87617L14.3468 5.87506L14.4293 5.93153ZM14.4319 5.92773L14.3494 5.87126L14.3499 5.87052L14.4319 5.92773ZM14.5966 5.69173H14.6966V5.72315L14.6786 5.74893L14.5966 5.69173ZM14.5966 3.73892L14.556 3.64753L14.6966 3.58507V3.73892H14.5966ZM12.8411 4.51872H12.7411V4.45372L12.8005 4.42733L12.8411 4.51872ZM10.1073 8.69354L10.1053 8.79352L10.1035 8.59361L10.1073 8.69354ZM13.3805 9.89295L13.3175 9.97057L13.3174 9.97051L13.3805 9.89295ZM13.4143 10.2218L13.3368 10.1587L13.3368 10.1586L13.4143 10.2218ZM13.0855 10.2556L13.0225 10.3332L13.0224 10.3331L13.0855 10.2556ZM7.02807 10.1666L6.96718 10.0872L6.96723 10.0872L7.02807 10.1666ZM6.70026 10.1232L6.77959 10.0623L6.77965 10.0623L6.70026 10.1232ZM6.74346 9.79535L6.68258 9.71602L6.68264 9.71598L6.74346 9.79535ZM9.8909 8.69334L9.89475 8.59342L9.89288 8.79332L9.8909 8.69334ZM7.15947 4.51852L7.20006 4.42713L7.25947 4.45352V4.51852H7.15947ZM5.07524 3.59271L5.03465 3.6841L5.03455 3.68406L5.07524 3.59271ZM5.07524 3.16551L5.11584 3.2569L5.11576 3.25694L5.07524 3.16551ZM9.9051 1.0201L9.8645 0.928711L9.86454 0.928694L9.9051 1.0201ZM10.0949 1.0201L10.1355 0.928694L10.1355 0.92871L10.0949 1.0201ZM14.925 3.16551L14.8844 3.25694L14.8844 3.2569L14.925 3.16551ZM7.62667 5.28952L7.66898 5.38013L7.52667 5.44658V5.28952H7.62667ZM12.3731 5.28952H12.4731V5.44663L12.3308 5.38012L12.3731 5.28952ZM12.3731 4.00672L12.4532 3.94681L12.4731 3.97345V4.00672H12.3731ZM11.6787 3.71812L11.7011 3.62064L11.7011 3.62065L11.6787 3.71812ZM8.32108 3.71812L8.34347 3.81558L8.34344 3.81558L8.32108 3.71812ZM7.62667 4.00672H7.52667V3.97345L7.5466 3.94681L7.62667 4.00672ZM12.3727 5.83973L12.4522 5.77907L12.4729 5.80616L12.4727 5.84023L12.3727 5.83973ZM11.6785 5.55153L11.6562 5.649L11.6561 5.64899L11.6785 5.55153ZM8.32088 5.55153L8.34327 5.64899L8.34323 5.649L8.32088 5.55153ZM7.62667 5.83973L7.52668 5.84026L7.52649 5.80617L7.54717 5.77907L7.62667 5.83973ZM1.46741 2.44671H1.3674V2.34671H1.46741V2.44671ZM1.46741 16.1598V16.2598H1.3674V16.1598H1.46741ZM4.90064 16.1598H5.00064V16.2598H4.90064V16.1598ZM4.90064 15.5138L4.91489 15.4148L5.00064 15.4271V15.5138H4.90064ZM4.67524 15.4634L4.64565 15.5589L4.64556 15.5589L4.67524 15.4634ZM4.67524 12.6486L4.70483 12.7441L4.70469 12.7441L4.67524 12.6486ZM4.90064 12.5982H5.00064V12.6848L4.91489 12.6971L4.90064 12.5982ZM5.00184 11.0084L4.945 10.9261L4.94518 10.926L5.00184 11.0084ZM5.21785 10.9824L5.25341 10.8889L5.25347 10.8889L5.21785 10.9824ZM5.63645 11.142H5.73645V11.2871L5.60083 11.2354L5.63645 11.142ZM5.73765 10.3668L5.68081 10.2845L5.68099 10.2844L5.73765 10.3668ZM5.95365 10.3408L5.98922 10.2473L5.98929 10.2473L5.95365 10.3408ZM9.9999 11.8838L10.0355 11.9772L9.9999 11.9908L9.96427 11.9772L9.9999 11.8838ZM14.0465 10.341L14.0822 10.4344L14.0822 10.4344L14.0465 10.341ZM14.2625 10.367L14.2059 10.4493L14.2057 10.4492L14.2625 10.367ZM14.3637 11.1422L14.3994 11.2356L14.2637 11.2873V11.1422H14.3637ZM14.7822 10.9826L14.8178 11.076L14.8178 11.076L14.7822 10.9826ZM14.9982 11.0086L14.9415 11.091L14.9413 11.0908L14.9982 11.0086ZM15.0994 12.5984L15.0851 12.6973L14.9994 12.685V12.5984H15.0994ZM15.3248 12.6488L15.3543 12.5532L15.3544 12.5533L15.3248 12.6488ZM15.3248 15.4636L15.2952 15.3681L15.2953 15.368L15.3248 15.4636ZM15.0994 15.514H14.9994V15.4273L15.0851 15.415L15.0994 15.514ZM15.0994 16.16V16.26H14.9994V16.16H15.0994ZM18.5324 16.16H18.6324V16.26H18.5324V16.16ZM18.5324 2.44671V2.34671H18.6324V2.44671H18.5324ZM18.7662 1.97911V1.87911V1.97911ZM15.0992 16.6274H14.9992V16.5274H15.0992V16.6274ZM14.9488 17.1296L14.9844 17.223L14.9844 17.223L14.9488 17.1296ZM10.0833 18.9846L10.1189 19.078L10.1186 19.0781L10.0833 18.9846ZM9.9167 18.9846L9.88113 19.0781L9.88107 19.078L9.9167 18.9846ZM5.05125 17.1296L5.01562 17.223L5.01557 17.223L5.05125 17.1296ZM4.90084 16.6274V16.5274H5.00084V16.6274H4.90084ZM1 2.21291L1.1 2.21275V2.21291H1ZM9.9167 12.3524L9.88113 12.4458L9.88107 12.4458L9.9167 12.3524ZM6.13126 10.909L6.1356 10.809L6.15177 10.8098L6.16688 10.8155L6.13126 10.909ZM6.10386 10.9066H6.00386V10.7872L6.12136 10.8081L6.10386 10.9066ZM6.10386 11.32L6.06823 11.4134L6.00386 11.3889V11.32H6.10386ZM9.9999 12.8056L10.0355 12.899L9.9999 12.9126L9.96427 12.899L9.9999 12.8056ZM13.8959 11.32H13.9959V11.3889L13.9316 11.4134L13.8959 11.32ZM13.8959 10.9066L13.8784 10.8081L13.9959 10.7872V10.9066H13.8959ZM13.8685 10.909L13.8329 10.8155L13.848 10.8098L13.8642 10.809L13.8685 10.909ZM10.0831 12.3524L10.1187 12.4458L10.1187 12.4458L10.0831 12.3524ZM15.1638 3.37911V5.69173H14.9638V3.37911H15.1638ZM15.1458 5.63452L15.3104 5.87052L15.1463 5.98493L14.9817 5.74893L15.1458 5.63452ZM15.3103 5.87038C15.3115 5.87216 15.3142 5.8759 15.3169 5.88024L15.1482 5.98762C15.1482 5.98767 15.1482 5.98756 15.1479 5.98715C15.1476 5.98668 15.1472 5.98615 15.1464 5.98507L15.3103 5.87038ZM15.3164 5.8794C15.3391 5.91426 15.3657 5.95107 15.3961 5.99349L15.2335 6.10996C15.2043 6.06919 15.1745 6.028 15.1487 5.98846L15.3164 5.8794ZM15.3959 5.99332C15.5123 6.155 15.6834 6.38746 15.6834 6.67653H15.4834C15.4834 6.462 15.3564 6.28086 15.2336 6.11014L15.3959 5.99332ZM15.6834 6.67653C15.6834 7.14695 15.3008 7.52974 14.8302 7.52974V7.32974C15.1903 7.32974 15.4834 7.03652 15.4834 6.67653H15.6834ZM14.8302 7.52974C14.3595 7.52974 13.9769 7.14716 13.9769 6.67653H14.1769C14.1769 7.03671 14.47 7.32974 14.8302 7.32974V7.52974ZM13.9769 6.67653C13.9769 6.3826 14.1525 6.14544 14.2724 5.9802L14.4343 6.09765C14.3078 6.27202 14.1769 6.45766 14.1769 6.67653H13.9769ZM14.2724 5.98024C14.3003 5.94174 14.3249 5.90808 14.3461 5.87617L14.5126 5.98689C14.4886 6.02298 14.4612 6.06052 14.4343 6.09762L14.2724 5.98024ZM14.3468 5.87506L14.3494 5.87126L14.5145 5.98419L14.5119 5.988L14.3468 5.87506ZM14.3499 5.87052L14.5145 5.63452L14.6786 5.74893L14.514 5.98493L14.3499 5.87052ZM14.4966 5.69173V3.73892H14.6966V5.69173H14.4966ZM14.6371 3.8303L12.8817 4.61011L12.8005 4.42733L14.556 3.64753L14.6371 3.8303ZM12.9411 4.51872V5.82733H12.7411V4.51872H12.9411ZM12.9411 5.82733C12.9411 7.42628 11.6824 8.73443 10.1111 8.79347L10.1035 8.59361C11.5662 8.53866 12.7411 7.31999 12.7411 5.82733H12.9411ZM10.1093 8.59356C11.3227 8.61801 12.5029 9.04966 13.4437 9.81539L13.3174 9.97051C12.4114 9.23304 11.2743 8.81708 10.1053 8.79352L10.1093 8.59356ZM13.4436 9.81533C13.5868 9.93165 13.6081 10.1421 13.4919 10.2849L13.3368 10.1586C13.3834 10.1014 13.3747 10.0171 13.3175 9.97057L13.4436 9.81533ZM13.4919 10.2849C13.4259 10.366 13.3295 10.408 13.2329 10.408V10.208C13.272 10.208 13.3104 10.1911 13.3368 10.1587L13.4919 10.2849ZM13.2329 10.408C13.1589 10.408 13.0843 10.3833 13.0225 10.3332L13.1485 10.1779C13.1735 10.1982 13.2033 10.208 13.2329 10.208V10.408ZM13.0224 10.3331C12.1723 9.64106 11.099 9.25995 10.0005 9.25995V9.05995C11.1449 9.05995 12.2628 9.45684 13.1487 10.178L13.0224 10.3331ZM10.0005 9.25995C8.93702 9.25995 7.9306 9.60074 7.0889 10.2459L6.96723 10.0872C7.84395 9.41516 8.89316 9.05995 10.0005 9.05995V9.25995ZM7.08895 10.2459C6.94266 10.3582 6.73305 10.3304 6.62088 10.184L6.77965 10.0623C6.82468 10.1211 6.90867 10.1321 6.96718 10.0872L7.08895 10.2459ZM6.62094 10.184C6.50866 10.0378 6.53642 9.82821 6.68258 9.71602L6.80435 9.87467C6.7457 9.91969 6.73466 10.0037 6.77959 10.0623L6.62094 10.184ZM6.68264 9.71598C7.61218 9.00359 8.71902 8.61659 9.88891 8.59336L9.89288 8.79332C8.76555 8.8157 7.69996 9.1883 6.80429 9.87472L6.68264 9.71598ZM9.88705 8.79327C8.31694 8.73278 7.05947 7.42526 7.05947 5.82713H7.25947C7.25947 7.31901 8.43323 8.53711 9.89475 8.59342L9.88705 8.79327ZM7.05947 5.82713V4.51852H7.25947V5.82713H7.05947ZM7.11887 4.60991L5.03465 3.6841L5.11584 3.50132L7.20006 4.42713L7.11887 4.60991ZM5.03455 3.68406C4.91416 3.63043 4.83644 3.51109 4.83644 3.37911H5.03644C5.03644 3.43194 5.06752 3.4798 5.11594 3.50137L5.03455 3.68406ZM4.83644 3.37911C4.83644 3.24727 4.91406 3.12756 5.03473 3.07409L5.11576 3.25694C5.06763 3.27827 5.03644 3.32616 5.03644 3.37911H4.83644ZM5.03465 3.07412L9.8645 0.928711L9.94569 1.11149L5.11584 3.2569L5.03465 3.07412ZM9.86454 0.928694C9.95077 0.890435 10.0492 0.890435 10.1355 0.928694L10.0543 1.11151C10.0198 1.09616 9.98023 1.09616 9.94566 1.11151L9.86454 0.928694ZM10.1355 0.92871L14.9655 3.07412L14.8844 3.2569L10.0543 1.11149L10.1355 0.92871ZM14.9655 3.07409C15.0861 3.12756 15.1638 3.24727 15.1638 3.37911H14.9638C14.9638 3.32616 14.9326 3.27827 14.8844 3.25694L14.9655 3.07409ZM7.58436 5.19892C7.89927 5.05187 8.32524 4.95785 8.75699 4.90015C9.19053 4.84222 9.63778 4.81992 9.9999 4.81992V5.01992C9.64501 5.01992 9.20676 5.04183 8.78348 5.09839C8.35842 5.15519 7.95629 5.24598 7.66898 5.38013L7.58436 5.19892ZM9.9999 4.81992C10.362 4.81992 10.8093 4.84217 11.2428 4.90008C11.6746 4.95775 12.1005 5.05177 12.4155 5.19893L12.3308 5.38012C12.0435 5.24588 11.6414 5.1551 11.2163 5.09832C10.7931 5.04178 10.3548 5.01992 9.9999 5.01992V4.81992ZM12.2731 5.28952V4.00672H12.4731V5.28952H12.2731ZM12.2931 4.06662C12.2949 4.06909 12.198 3.93985 11.6564 3.81558L11.7011 3.62065C12.2579 3.74839 12.4122 3.89195 12.4532 3.94681L12.2931 4.06662ZM11.6564 3.81559C11.205 3.71209 10.6166 3.65411 9.9999 3.65411V3.45411C10.6272 3.45411 11.2313 3.51294 11.7011 3.62064L11.6564 3.81559ZM9.9999 3.65411C9.3832 3.65411 8.79484 3.7119 8.34347 3.81558L8.29869 3.62065C8.76853 3.51273 9.37259 3.45411 9.9999 3.45411V3.65411ZM8.34344 3.81558C7.80181 3.93985 7.7049 4.06909 7.70675 4.06662L7.5466 3.94681C7.58765 3.89195 7.74194 3.74839 8.29872 3.62065L8.34344 3.81558ZM7.72667 4.00672V5.28952H7.52667V4.00672H7.72667ZM9.9999 8.12854C11.2481 8.12854 12.2664 7.10355 12.2727 5.83923L12.4727 5.84023C12.4659 7.21232 11.3605 8.32854 9.9999 8.32854V8.12854ZM12.2932 5.90038C12.2939 5.90128 12.1951 5.7726 11.6562 5.649L11.7009 5.45406C12.2555 5.58125 12.4103 5.72417 12.4522 5.77907L12.2932 5.90038ZM11.6561 5.64899C11.2048 5.54531 10.6164 5.48752 9.9997 5.48752V5.28752C10.627 5.28752 11.2311 5.34614 11.7009 5.45406L11.6561 5.64899ZM9.9997 5.48752C9.383 5.48752 8.79464 5.54531 8.34327 5.64899L8.29849 5.45406C8.76833 5.34614 9.37239 5.28752 9.9997 5.28752V5.48752ZM8.34323 5.649C7.80427 5.7726 7.70549 5.90128 7.70618 5.90038L7.54717 5.77907C7.58906 5.72417 7.74388 5.58125 8.29853 5.45406L8.34323 5.649ZM7.72667 5.8392C7.73339 7.10375 8.75166 8.12854 9.9999 8.12854V8.32854C8.63931 8.32854 7.53396 7.21252 7.52668 5.84026L7.72667 5.8392ZM1.2336 1.87911H4.7662V2.07911H1.2336V1.87911ZM4.7662 1.87911C4.95037 1.87911 5.1 2.02842 5.1 2.21291H4.9C4.9 2.13899 4.84003 2.07911 4.7662 2.07911V1.87911ZM5.1 2.21291C5.1 2.39734 4.95063 2.54671 4.7662 2.54671V2.34671C4.84017 2.34671 4.9 2.28688 4.9 2.21291H5.1ZM4.7662 2.54671H1.46741V2.34671H4.7662V2.54671ZM1.56741 2.44671V16.1598H1.3674V2.44671H1.56741ZM1.46741 16.0598H4.90064V16.2598H1.46741V16.0598ZM4.80064 16.1598V15.5138H5.00064V16.1598H4.80064ZM4.88639 15.6128C4.80514 15.6011 4.72458 15.5834 4.64565 15.5589L4.70483 15.3679C4.7731 15.389 4.84335 15.4045 4.91489 15.4148L4.88639 15.6128ZM4.64556 15.5589C4.50609 15.5155 4.41064 15.3865 4.41064 15.2402H4.61064C4.61064 15.2986 4.64879 15.3504 4.70492 15.3679L4.64556 15.5589ZM4.41064 15.2402V12.8718H4.61064V15.2402H4.41064ZM4.41064 12.8718C4.41064 12.7256 4.5057 12.5962 4.64579 12.553L4.70469 12.7441C4.64878 12.7614 4.61064 12.8131 4.61064 12.8718H4.41064ZM4.64565 12.553C4.72458 12.5286 4.80514 12.5109 4.88639 12.4992L4.91489 12.6971C4.84335 12.7074 4.7731 12.7229 4.70483 12.7441L4.64565 12.553ZM4.80064 12.5982V11.201H5.00064V12.5982H4.80064ZM4.80064 11.201C4.80064 11.0912 4.85465 10.9885 4.945 10.9261L5.05868 11.0906C5.02224 11.1158 5.00064 11.1571 5.00064 11.201H4.80064ZM4.94518 10.926C5.03555 10.8638 5.15061 10.8498 5.25341 10.8889L5.18228 11.0758C5.14108 11.0601 5.09494 11.0657 5.05851 11.0908L4.94518 10.926ZM5.25347 10.8889L5.67208 11.0485L5.60083 11.2354L5.18222 11.0758L5.25347 10.8889ZM5.53645 11.142V10.5594H5.73645V11.142H5.53645ZM5.53645 10.5594C5.53645 10.4496 5.59046 10.3469 5.68081 10.2845L5.79449 10.449C5.75805 10.4742 5.73645 10.5155 5.73645 10.5594H5.53645ZM5.68099 10.2844C5.77136 10.2222 5.88642 10.2082 5.98922 10.2473L5.91809 10.4342C5.87688 10.4185 5.83075 10.4241 5.79432 10.4491L5.68099 10.2844ZM5.98929 10.2473L10.0355 11.7903L9.96427 11.9772L5.91802 10.4342L5.98929 10.2473ZM9.96428 11.7903L14.0109 10.2475L14.0822 10.4344L10.0355 11.9772L9.96428 11.7903ZM14.0109 10.2475C14.1134 10.2084 14.2288 10.2221 14.3194 10.2847L14.2057 10.4492C14.1695 10.4242 14.1233 10.4187 14.0822 10.4344L14.0109 10.2475ZM14.3192 10.2846C14.4098 10.3469 14.4637 10.4497 14.4637 10.5596H14.2637C14.2637 10.5154 14.2421 10.4743 14.2059 10.4493L14.3192 10.2846ZM14.4637 10.5596V11.1422H14.2637V10.5596H14.4637ZM14.3281 11.0487L14.7465 10.8891L14.8178 11.076L14.3994 11.2356L14.3281 11.0487ZM14.7465 10.8891C14.849 10.85 14.9644 10.8637 15.055 10.9263L14.9413 11.0908C14.9051 11.0658 14.8589 11.0603 14.8178 11.076L14.7465 10.8891ZM15.0548 10.9262C15.1454 10.9885 15.1994 11.0913 15.1994 11.2012H14.9994C14.9994 11.157 14.9777 11.1159 14.9415 11.091L15.0548 10.9262ZM15.1994 11.2012V12.5984H14.9994V11.2012H15.1994ZM15.1136 12.4994C15.1949 12.5111 15.2752 12.5288 15.3543 12.5532L15.2952 12.7443C15.2267 12.7231 15.1566 12.7076 15.0851 12.6973L15.1136 12.4994ZM15.3544 12.5533C15.4939 12.5966 15.5894 12.7256 15.5894 12.872H15.3894C15.3894 12.8135 15.3512 12.7617 15.2951 12.7443L15.3544 12.5533ZM15.5894 12.872V15.2404H15.3894V12.872H15.5894ZM15.5894 15.2404C15.5894 15.3865 15.4943 15.516 15.3542 15.5591L15.2953 15.368C15.3512 15.3508 15.3894 15.2991 15.3894 15.2404H15.5894ZM15.3544 15.5591C15.2754 15.5836 15.1949 15.6013 15.1136 15.613L15.0851 15.415C15.1567 15.4047 15.2269 15.3892 15.2952 15.3681L15.3544 15.5591ZM15.1994 15.514V16.16H14.9994V15.514H15.1994ZM15.0994 16.06H18.5324V16.26H15.0994V16.06ZM18.4324 16.16V2.44671H18.6324V16.16H18.4324ZM18.5324 2.54671H15.2338V2.34671H18.5324V2.54671ZM15.2338 2.54671C15.0496 2.54671 14.9 2.39739 14.9 2.21291H15.1C15.1 2.28682 15.16 2.34671 15.2338 2.34671V2.54671ZM14.9 2.21291C14.9 2.02848 15.0494 1.87911 15.2338 1.87911V2.07911C15.1598 2.07911 15.1 2.13894 15.1 2.21291H14.9ZM15.2338 1.87911H18.7662V2.07911H15.2338V1.87911ZM18.7662 1.87911C18.9507 1.87911 19.1 2.02873 19.1 2.21291H18.9C18.9 2.13908 18.8401 2.07911 18.7662 2.07911V1.87911ZM19.1 2.21291V16.3936H18.9V2.21291H19.1ZM19.1 16.3936C19.1 16.5778 18.9507 16.7274 18.7662 16.7274V16.5274C18.8401 16.5274 18.9 16.4674 18.9 16.3936H19.1ZM18.7662 16.7274H15.0992V16.5274H18.7662V16.7274ZM15.1992 16.6274V16.9112H14.9992V16.6274H15.1992ZM15.1992 16.9112C15.1992 17.0497 15.1137 17.1736 14.9844 17.223L14.9131 17.0362C14.965 17.0164 14.9992 16.9667 14.9992 16.9112H15.1992ZM14.9844 17.223L10.1189 19.078L10.0477 18.8912L14.9131 17.0362L14.9844 17.223ZM10.1186 19.0781C10.0806 19.0925 10.0404 19.1 9.9999 19.1V18.9C10.0158 18.9 10.032 18.8971 10.048 18.8911L10.1186 19.0781ZM9.9999 19.1C9.95941 19.1 9.91916 19.0925 9.88113 19.0781L9.95227 18.8911C9.96784 18.8971 9.98399 18.9 9.9999 18.9V19.1ZM9.88107 19.078L5.01562 17.223L5.08687 17.0362L9.95232 18.8912L9.88107 19.078ZM5.01557 17.223C4.88625 17.1736 4.80084 17.0497 4.80084 16.9112H5.00084C5.00084 16.9667 5.03504 17.0164 5.08692 17.0362L5.01557 17.223ZM4.80084 16.9112V16.6274H5.00084V16.9112H4.80084ZM4.90084 16.7274H1.2338V16.5274H4.90084V16.7274ZM1.2338 16.7274C1.04963 16.7274 0.9 16.5781 0.9 16.3936H1.1C1.1 16.4675 1.15997 16.5274 1.2338 16.5274V16.7274ZM0.9 16.3936V2.21291H1.1V16.3936H0.9ZM0.9 2.21306C0.899714 2.02874 1.04915 1.87911 1.2336 1.87911V2.07911C1.15965 2.07911 1.09989 2.13908 1.1 2.21275L0.9 2.21306ZM9.88107 12.4458L6.09563 11.0024L6.16688 10.8155L9.95233 12.2589L9.88107 12.4458ZM6.12691 11.0089C6.11887 11.0085 6.10299 11.008 6.08635 11.005L6.12136 10.8081C6.12272 10.8083 6.12524 10.8086 6.1356 10.809L6.12691 11.0089ZM6.20386 10.9066V11.32H6.00386V10.9066H6.20386ZM6.13949 11.2265L10.0355 12.7121L9.96427 12.899L6.06823 11.4134L6.13949 11.2265ZM9.96427 12.7121L13.8603 11.2265L13.9316 11.4134L10.0355 12.899L9.96427 12.7121ZM13.7959 11.32V10.9066H13.9959V11.32H13.7959ZM13.9134 11.005C13.8968 11.008 13.8809 11.0085 13.8729 11.0089L13.8642 10.809C13.8746 10.8086 13.8771 10.8083 13.8784 10.8081L13.9134 11.005ZM13.9042 11.0024L10.1187 12.4458L10.0475 12.2589L13.8329 10.8155L13.9042 11.0024ZM10.1187 12.4458C10.0422 12.4749 9.95764 12.4749 9.88113 12.4458L9.95227 12.2589C9.98296 12.2706 10.0168 12.2706 10.0475 12.2589L10.1187 12.4458Z" fill="white" mask="url(#path-1-outside-1_1497_3078)"/>
</svg>
