<svg width="18" height="18" viewBox="0 0 18 18" fill="none" xmlns="http://www.w3.org/2000/svg">
<path d="M18 13.1429V11.8571H16.6493C16.5664 11.4548 16.4066 11.0721 16.1788 10.7303L17.1366 9.77242L16.2276 8.86342L15.2698 9.82128C14.9279 9.59339 14.5453 9.43361 14.1429 9.35071V8H12.8571V9.35071C12.4548 9.4336 12.0721 9.59336 11.7303 9.82121L10.7724 8.86336L9.86342 9.77236L10.8213 10.7302C10.5934 11.0721 10.4336 11.4547 10.3507 11.8571H9V13.1429H10.3507C10.4336 13.5452 10.5934 13.9279 10.8212 14.2697L9.86336 15.2276L10.7724 16.1366L11.7302 15.1787C12.0721 15.4066 12.4547 15.5664 12.8571 15.6493V17H14.1429V15.6493C14.5452 15.5664 14.9279 15.4066 15.2697 15.1788L16.2276 16.1366L17.1366 15.2276L16.1787 14.2698C16.4066 13.9279 16.5664 13.5453 16.6493 13.1429H18ZM13.5 14.4286C13.1186 14.4286 12.7457 14.3155 12.4285 14.1035C12.1114 13.8916 11.8642 13.5904 11.7182 13.238C11.5723 12.8856 11.5341 12.4979 11.6085 12.1238C11.6829 11.7496 11.8666 11.406 12.1363 11.1363C12.406 10.8666 12.7496 10.6829 13.1238 10.6085C13.4979 10.5341 13.8856 10.5723 14.238 10.7182C14.5904 10.8642 14.8916 11.1114 15.1035 11.4285C15.3155 11.7457 15.4286 12.1186 15.4286 12.5C15.428 13.0113 15.2246 13.5015 14.8631 13.8631C14.5015 14.2246 14.0113 14.428 13.5 14.4286Z" fill="white"/>
<path d="M16.7143 1H1.28571C0.944826 1.00033 0.617997 1.13213 0.376953 1.36648C0.135908 1.60083 0.000340378 1.91858 0 2.25V14.75C0.000391329 15.0814 0.135976 15.3991 0.377009 15.6335C0.618043 15.8678 0.944842 15.9996 1.28571 16H7.71429V14.75H1.28571V6H16.7143V7.875H18V2.25C17.9996 1.9186 17.864 1.60087 17.623 1.36654C17.382 1.1322 17.0552 1.00038 16.7143 1ZM16.7143 4.75H1.28571V2.25H16.7143V4.75Z" fill="white"/>
<path d="M11.5 4C11.7761 4 12 3.77614 12 3.5C12 3.22386 11.7761 3 11.5 3C11.2239 3 11 3.22386 11 3.5C11 3.77614 11.2239 4 11.5 4Z" fill="white"/>
<path d="M13.5 4C13.7761 4 14 3.77614 14 3.5C14 3.22386 13.7761 3 13.5 3C13.2239 3 13 3.22386 13 3.5C13 3.77614 13.2239 4 13.5 4Z" fill="white"/>
<path d="M15.5 4C15.7761 4 16 3.77614 16 3.5C16 3.22386 15.7761 3 15.5 3C15.2239 3 15 3.22386 15 3.5C15 3.77614 15.2239 4 15.5 4Z" fill="white"/>
</svg>
