<svg width="19" height="15" viewBox="0 0 19 15" fill="none" xmlns="http://www.w3.org/2000/svg">
<path d="M12.5003 6.66667C14.336 6.66667 15.8337 5.17597 15.8337 3.33333C15.8337 1.49757 14.336 0 12.5003 0C10.7474 0 9.29812 1.37335 9.1739 3.09867C9.16699 3.17462 9.16699 3.25052 9.16699 3.33333C9.16699 4.09937 9.42234 4.80331 9.85712 5.36231C10.4644 6.15594 11.4237 6.66667 12.5003 6.66667Z" fill="white"/>
<path d="M12.7433 12.5H16.5197C17.5203 12.5 18.3337 11.6544 18.3337 10.6074C18.3337 8.89598 16.9909 7.5 15.3383 7.5H10.1224C9.98684 7.5 9.85772 7.50672 9.72861 7.52687C9.58015 7.82889 9.38649 8.11748 9.16699 8.37251C11.1165 8.70808 12.6335 10.4128 12.7433 12.5Z" fill="white"/>
<path d="M2.5 5.8335C2.5 7.67141 3.99518 9.16667 5.83333 9.16667C7.67148 9.16667 9.16667 7.67141 9.16667 5.8335C9.16667 3.99526 7.67148 2.5 5.83333 2.5C3.99518 2.5 2.5 3.99526 2.5 5.8335Z" fill="white"/>
<path d="M1.8914 15H9.77527C10.8181 15 11.6667 14.1527 11.6667 13.1114C11.6667 11.3958 10.2688 10 8.55066 10H3.11601C1.39787 10 0 11.3958 0 13.1114C0 14.1527 0.848568 15 1.8914 15Z" fill="white"/>
</svg>
