<svg width="33" height="28" viewBox="0 0 33 28" fill="none" xmlns="http://www.w3.org/2000/svg">
<path d="M29.543 0H3.12537C1.40153 0 0 1.40298 0 3.12537V24.8746C0 26.5985 1.40298 28 3.12537 28H29.543C31.2669 28 32.6684 26.597 32.6684 24.8746L32.6699 3.12537C32.6699 1.40153 31.2669 0 29.5445 0H29.543ZM3.12537 1.55613H29.543C30.4093 1.55613 31.1137 2.26054 31.1137 3.12683V6.22304H1.55617V3.12683C1.55617 2.26054 2.26057 1.55613 3.12686 1.55613H3.12537ZM29.543 26.4468L3.12537 26.4453C2.25908 26.4453 1.55468 25.7409 1.55468 24.8746V7.77771H31.1122V24.8746C31.1122 25.7409 30.4078 26.4453 29.5415 26.4453L29.543 26.4468Z" fill="#5F6383"/>
<path d="M24.9826 11.8177C24.5568 11.6048 24.058 11.65 23.6802 11.9358L20.7795 14.1118V14.0607C20.7795 12.4959 19.5063 11.2227 17.9414 11.2227H9.84003C8.2737 11.2227 7.00195 12.4959 7.00195 14.0607V19.7163C7.00195 21.2826 8.27516 22.5543 9.84003 22.5543H17.9414C19.5077 22.5543 20.7795 21.2811 20.7795 19.7163V19.6652L23.6817 21.8412C23.9019 22.006 24.163 22.0905 24.4255 22.0905C24.6151 22.0905 24.8061 22.0468 24.9826 21.9578C25.4055 21.7464 25.668 21.3205 25.668 20.8465V12.9273C25.668 12.4534 25.4055 12.0275 24.9826 11.816V11.8177ZM19.2233 19.7178C19.2233 20.4252 18.6472 20.9998 17.9413 20.9998H9.83995C9.13264 20.9998 8.55801 20.4237 8.55801 19.7178V14.0623C8.55801 13.355 9.13409 12.7804 9.83995 12.7804H17.9413C18.6486 12.7804 19.2233 13.3564 19.2233 14.0623V19.7178ZM24.1134 20.2225L20.7795 17.7228V16.0558L24.1134 13.5561V20.2238V20.2225Z" fill="#5F6383"/>
<path d="M3.88962 4.66792H6.22308C6.65329 4.66792 7.0004 4.31936 7.0004 3.8906C7.0004 3.46184 6.65329 3.11328 6.22308 3.11328H3.88962C3.45941 3.11328 3.1123 3.46184 3.1123 3.8906C3.1123 4.31936 3.45941 4.66792 3.88962 4.66792Z" fill="#5F6383"/>
<path d="M9.33347 4.66547H28.7784C29.2086 4.66547 29.5557 4.31691 29.5557 3.88815C29.5557 3.4594 29.2086 3.11083 28.7784 3.11083L9.33347 3.10938C8.90326 3.10938 8.55615 3.45793 8.55615 3.88669C8.55615 4.31545 8.90325 4.66401 9.33347 4.66401V4.66547Z" fill="#5F6383"/>
</svg>
