<svg width="9" height="16" viewBox="0 0 9 16" fill="none" xmlns="http://www.w3.org/2000/svg">
<path d="M4.52293 15.05H4.52291C2.63268 15.0576 1.01733 13.4942 0.981772 11.5273L0.981772 11.5273C0.93953 9.16319 0.938813 6.7968 0.983205 4.43264L0.983205 4.43263C1.02317 2.31921 2.89991 0.996308 4.41097 0.951345L4.52293 15.05ZM4.52293 15.05C6.39355 15.0416 7.9727 13.4733 8.02928 11.5256C8.05303 10.7136 8.04705 9.9 8.04108 9.08734C8.03853 8.74015 8.03599 8.39314 8.03576 8.04652H8.04576M4.52293 15.05L8.04576 8.04652M8.04576 8.04652V7.99652M8.04576 8.04652V7.99652M8.04576 7.99652C8.04576 7.65779 8.04417 7.31923 8.04258 6.98077C8.03905 6.2308 8.03553 5.48137 8.04933 4.73191C8.09067 2.48398 6.20603 0.897197 4.41099 0.951345L8.04576 7.99652ZM4.50691 2.20192H4.50693C5.81682 2.20265 6.84784 3.28179 6.85417 4.67864C6.85712 5.4437 6.85635 6.20868 6.85558 6.9738C6.85523 7.32168 6.85489 7.66959 6.85489 8.01755C6.85489 8.34776 6.85527 8.67798 6.85566 9.00819C6.85656 9.77853 6.85746 10.5488 6.85346 11.3189V11.3189C6.84713 12.6994 5.78877 13.8091 4.50066 13.8054C3.20873 13.8017 2.15826 12.6986 2.15474 11.313C2.14902 9.09975 2.14902 6.88577 2.15474 4.67254C2.15826 3.27828 3.19541 2.20045 4.50691 2.20192Z" fill="#5F6383" stroke="#5F6383" stroke-width="0.1"/>
</svg>
