<svg width="15" height="22" viewBox="0 0 15 22" fill="none" xmlns="http://www.w3.org/2000/svg">
<path d="M7.52293 15.05H7.52291C5.63268 15.0576 4.01733 13.4942 3.98177 11.5273L3.98177 11.5273C3.93953 9.16319 3.93881 6.7968 3.9832 4.43264L3.9832 4.43263C4.02317 2.31921 5.89991 0.996308 7.41097 0.951345L7.52293 15.05ZM7.52293 15.05C9.39355 15.0416 10.9727 13.4733 11.0293 11.5256C11.053 10.7136 11.0471 9.9 11.0411 9.08734C11.0385 8.74015 11.036 8.39314 11.0358 8.04652H11.0458M7.52293 15.05L11.0458 8.04652M11.0458 8.04652V7.99652M11.0458 8.04652V7.99652M11.0458 7.99652C11.0458 7.65779 11.0442 7.31923 11.0426 6.98077C11.0391 6.2308 11.0355 5.48137 11.0493 4.73191C11.0907 2.48398 9.20603 0.897197 7.41099 0.951345L11.0458 7.99652ZM7.50691 2.20192H7.50693C8.81682 2.20265 9.84784 3.28179 9.85417 4.67864C9.85712 5.4437 9.85635 6.20868 9.85558 6.9738C9.85523 7.32168 9.85489 7.66959 9.85489 8.01755C9.85489 8.34776 9.85527 8.67798 9.85566 9.00819C9.85656 9.77853 9.85746 10.5488 9.85346 11.3189V11.3189C9.84713 12.6994 8.78877 13.8091 7.50066 13.8054C6.20873 13.8017 5.15826 12.6986 5.15474 11.313C5.14902 9.09975 5.14902 6.88577 5.15474 4.67254C5.15826 3.27828 6.19541 2.20045 7.50691 2.20192Z" fill="#5F6383" stroke="#5F6383" stroke-width="0.1"/>
<path d="M10.485 20.9502C10.4096 21.0057 10.2858 21.0007 10.1675 20.9958C10.1325 20.9944 10.0981 20.993 10.0655 20.9932L1.63002 11.0946C1.43898 11.0976 1.27974 11.1718 1.16931 11.3034C1.05955 11.4342 1.00153 11.6173 1.00275 11.8331L1.00275 11.8331C1.02086 14.7375 3.05252 17.3303 5.87413 18.046L5.87419 18.046C6.10362 18.1039 6.33636 18.1515 6.57154 18.1997C6.67031 18.2199 6.76952 18.2402 6.86909 18.2614V18.2631V18.2661V18.2692V18.2722V18.2752V18.2782V18.2812V18.2842V18.2872V18.2902V18.2932V18.2963V18.2993V18.3023V18.3053V18.3083V18.3113V18.3143V18.3173V18.3203V18.3233V18.3263V18.3293V18.3324V18.3354V18.3384V18.3414V18.3444V18.3474V18.3504V18.3534V18.3564V18.3594V18.3624V18.3654V18.3684V18.3714V18.3744V18.3774V18.3805V18.3835V18.3865V18.3895V18.3925V18.3955V18.3985V18.4015V18.4045V18.4075V18.4105V18.4135V18.4165V18.4195V18.4225V18.4255V18.4285V18.4315V18.4345V18.4375V18.4405V18.4435V18.4465V18.4495V18.4525V18.4555V18.4585V18.4615V18.4645V18.4675V18.4706V18.4736V18.4766V18.4796V18.4826V18.4856V18.4886V18.4916V18.4946V18.4976V18.5006V18.5036V18.5066V18.5096V18.5126V18.5156V18.5186V18.5216V18.5246V18.5276V18.5306V18.5336V18.5366V18.5396V18.5426V18.5456V18.5486V18.5516V18.5546V18.5576V18.5606V18.5636V18.5666V18.5696V18.5726V18.5756V18.5786V18.5816V18.5846V18.5876V18.5906V18.5936V18.5966V18.5996V18.6026V18.6056V18.6086V18.6116V18.6146V18.6176V18.6206V18.6236V18.6266V18.6296V18.6326V18.6357V18.6387V18.6417V18.6447V18.6477V18.6507V18.6537V18.6567V18.6597V18.6627V18.6657V18.6687V18.6717V18.6747V18.6777V18.6807V18.6837V18.6867V18.6897V18.6927V18.6957V18.6987V18.7017V18.7048V18.7078V18.7108V18.7138V18.7168V18.7198V18.7228V18.7258V18.7288V18.7318V18.7348V18.7378V18.7408V18.7438V18.7469V18.7499V18.7529V18.7559V18.7589V18.7619V18.7649V18.7679V18.7709V18.7739V18.7769V18.78V18.783V18.786V18.789V18.792V18.795V18.798V18.801V18.804V18.8071V18.8101V18.8131V18.8161V18.8191V18.8221V18.8251V18.8282V18.8312V18.8342V18.8372V18.8402V18.8432V18.8463V18.8493V18.8523V18.8553V18.8583V18.8613V18.8644V18.8674V18.8704V18.8734V18.8764V18.8794V18.8825V18.8855V18.8885V18.8915V18.8946V18.8976V18.9006V18.9036V18.9066V18.9097V18.9127V18.9157V18.9187V18.9218V18.9248V18.9278V18.9308V18.9339V18.9369V18.9399V18.9429V18.946V18.949V18.952V18.955V18.9581V18.9611V18.9641V18.9672V18.9702V18.9732V18.9763V18.9793V18.9823V18.9854V18.9884V18.9914V18.9945V18.9975V19.0005V19.0036V19.0066V19.0096V19.0127V19.0157V19.0187V19.0218V19.0248V19.0279V19.0309V19.0339V19.037V19.04V19.0431V19.0461V19.0491V19.0522V19.0552V19.0583V19.0613V19.0643V19.0674V19.0704V19.0735V19.0765V19.0796V19.0826V19.0857V19.0887V19.0918V19.0948V19.0979V19.1009V19.104V19.107V19.1101V19.1131V19.1162V19.1192V19.1223V19.1253V19.1284V19.1314V19.1345V19.1376V19.1406V19.1437V19.1467V19.1498V19.1528V19.1559V19.159V19.162V19.1651V19.1682V19.1712V19.1743V19.1773V19.1804V19.1835V19.1865V19.1896V19.1927V19.1957V19.1988V19.2019V19.2049V19.208V19.2111V19.2142V19.2172V19.2203V19.2234V19.2264V19.2295V19.2326V19.2357V19.2387V19.2418V19.2449V19.248V19.2511V19.2541V19.2572V19.2603V19.2634V19.2665V19.2695V19.2726V19.2757V19.2788V19.2819V19.285V19.2881V19.2911V19.2942V19.2973V19.3004V19.3035V19.3066V19.3097V19.3128V19.3159V19.319V19.3221V19.3252V19.3282V19.3313V19.3344V19.3375V19.3406V19.3437V19.3468V19.3499V19.353V19.3561V19.3592V19.3624V19.3655V19.3686V19.3717V19.3748V19.3779V19.381V19.3841V19.3872V19.3903V19.3934V19.3965V19.3997V19.4028V19.4059V19.409V19.4121V19.4152V19.4184V19.4215V19.4246V19.4277V19.4308V19.434V19.4371V19.4402V19.4433V19.4465V19.4496V19.4527V19.4558V19.459V19.4621V19.4652V19.4684V19.4715V19.4746V19.4778V19.4809V19.484V19.4872V19.4903V19.4934V19.4966V19.4997V19.5029V19.506V19.5091V19.5123V19.5154V19.5186V19.5217V19.5249V19.528V19.5312V19.5343V19.5375V19.5406V19.5438V19.5469V19.5501V19.5532V19.5564V19.5595V19.5627V19.5659V19.569V19.5722V19.5753V19.5785V19.5817V19.5848V19.588V19.5912V19.5943V19.5975V19.6007V19.6038V19.607V19.6102V19.6134V19.6165V19.6197V19.6229V19.6261V19.6292V19.6324V19.6356V19.6388V19.642V19.6451V19.6483V19.6515V19.6547V19.6579V19.6611V19.6643V19.6674V19.6706V19.6738V19.677V19.6802V19.6834V19.6866V19.6898V19.693V19.6962V19.6994V19.7026V19.7058V19.709V19.7122V19.7154V19.7186V19.7218V19.725V19.7283V19.7315V19.7347V19.7379V19.7394C6.79547 19.7394 6.72265 19.7394 6.65053 19.7394C6.2145 19.7393 5.80368 19.7392 5.3918 19.7418C5.3295 19.7418 5.2665 19.7408 5.2031 19.7399C5.04445 19.7374 4.88328 19.735 4.72412 19.7474C4.52909 19.7626 4.36814 19.8314 4.25498 19.9441C4.14157 20.0571 4.07982 20.2107 4.07731 20.3879L4.07731 20.3879C4.07481 20.5683 4.1311 20.7218 4.2419 20.8353C4.35221 20.9483 4.51205 21.017 4.70878 21.0374C4.78723 21.0456 4.86646 21.0452 4.94262 21.0449C4.95765 21.0448 4.97257 21.0447 4.98734 21.0447C5.32579 21.0447 5.66425 21.0448 6.00271 21.0448C7.35697 21.0449 8.71128 21.0451 10.0656 21.0432L10.0658 21.0432C10.0971 21.043 10.1304 21.0444 10.1656 21.0458L10.1756 21.0462C10.2139 21.0478 10.2542 21.0492 10.2933 21.0483C10.3696 21.0467 10.4524 21.0362 10.5145 20.9905L10.485 20.9502ZM10.485 20.9502C10.6576 20.8237 10.8865 20.6354 10.8951 20.4628L10.5146 20.9905L10.485 20.9502ZM3.67112 15.3417L3.70705 15.3069C5.19139 16.84 7.01014 17.3596 9.04399 16.7374C11.0548 16.1221 12.2772 14.708 12.6762 12.6202C12.7117 12.4334 12.7244 12.2442 12.7372 12.0516C12.7433 11.9597 12.7495 11.867 12.7583 11.7735L12.7583 11.7733C12.7784 11.5636 12.8589 11.387 12.9835 11.2662C13.1086 11.1449 13.2759 11.0823 13.4629 11.0979M3.67112 15.3417L10.945 20.4654C10.945 20.4654 10.945 20.4653 10.945 20.4653C10.9508 20.3535 10.9043 20.2344 10.8402 20.1276C10.7755 20.0195 10.6893 19.9179 10.607 19.8392L10.6069 19.8392C10.5446 19.7798 10.4497 19.7591 10.3602 19.7507C10.2937 19.7444 10.2215 19.7444 10.1564 19.7444C10.1327 19.7444 10.11 19.7444 10.0889 19.7441L10.0888 19.7441C9.61883 19.7385 9.14916 19.7394 8.67403 19.7403C8.51132 19.7406 8.34797 19.7409 8.18376 19.741V19.7392V19.736V19.7328V19.7296V19.7263V19.7231V19.7199V19.7167V19.7135V19.7102V19.707V19.7038V19.7006V19.6974V19.6942V19.691V19.6878V19.6846V19.6813V19.6781V19.6749V19.6717V19.6685V19.6653V19.6621V19.6589V19.6557V19.6525V19.6493V19.6461V19.6429V19.6397V19.6366V19.6334V19.6302V19.627V19.6238V19.6206V19.6174V19.6142V19.6111V19.6079V19.6047V19.6015V19.5983V19.5952V19.592V19.5888V19.5856V19.5824V19.5793V19.5761V19.5729V19.5698V19.5666V19.5634V19.5602V19.5571V19.5539V19.5508V19.5476V19.5444V19.5413V19.5381V19.5349V19.5318V19.5286V19.5255V19.5223V19.5192V19.516V19.5128V19.5097V19.5065V19.5034V19.5002V19.4971V19.4939V19.4908V19.4876V19.4845V19.4814V19.4782V19.4751V19.4719V19.4688V19.4657V19.4625V19.4594V19.4562V19.4531V19.45V19.4468V19.4437V19.4406V19.4374V19.4343V19.4312V19.428V19.4249V19.4218V19.4187V19.4155V19.4124V19.4093V19.4062V19.403V19.3999V19.3968V19.3937V19.3906V19.3874V19.3843V19.3812V19.3781V19.375V19.3719V19.3687V19.3656V19.3625V19.3594V19.3563V19.3532V19.3501V19.347V19.3439V19.3408V19.3377V19.3345V19.3314V19.3283V19.3252V19.3221V19.319V19.3159V19.3128V19.3097V19.3066V19.3035V19.3004V19.2973V19.2943V19.2912V19.2881V19.285V19.2819V19.2788V19.2757V19.2726V19.2695V19.2664V19.2633V19.2603V19.2572V19.2541V19.251V19.2479V19.2448V19.2417V19.2387V19.2356V19.2325V19.2294V19.2263V19.2233V19.2202V19.2171V19.214V19.211V19.2079V19.2048V19.2017V19.1987V19.1956V19.1925V19.1894V19.1864V19.1833V19.1802V19.1772V19.1741V19.171V19.168V19.1649V19.1618V19.1588V19.1557V19.1526V19.1496V19.1465V19.1434V19.1404V19.1373V19.1343V19.1312V19.1281V19.1251V19.122V19.119V19.1159V19.1129V19.1098V19.1067V19.1037V19.1006V19.0976V19.0945V19.0915V19.0884V19.0854V19.0823V19.0793V19.0762V19.0732V19.0701V19.0671V19.064V19.061V19.0579V19.0549V19.0518V19.0488V19.0457V19.0427V19.0397V19.0366V19.0336V19.0305V19.0275V19.0245V19.0214V19.0184V19.0153V19.0123V19.0093V19.0062V19.0032V19.0001V18.9971V18.9941V18.991V18.988V18.985V18.9819V18.9789V18.9759V18.9728V18.9698V18.9668V18.9637V18.9607V18.9577V18.9546V18.9516V18.9486V18.9455V18.9425V18.9395V18.9365V18.9334V18.9304V18.9274V18.9244V18.9213V18.9183V18.9153V18.9122V18.9092V18.9062V18.9032V18.9002V18.8971V18.8941V18.8911V18.8881V18.885V18.882V18.879V18.876V18.873V18.8699V18.8669V18.8639V18.8609V18.8579V18.8548V18.8518V18.8488V18.8458V18.8428V18.8398V18.8367V18.8337V18.8307V18.8277V18.8247V18.8217V18.8186V18.8156V18.8126V18.8096V18.8066V18.8036V18.8006V18.7976V18.7945V18.7915V18.7885V18.7855V18.7825V18.7795V18.7765V18.7735V18.7705V18.7674V18.7644V18.7614V18.7584V18.7554V18.7524V18.7494V18.7464V18.7434V18.7404V18.7374V18.7344V18.7313V18.7283V18.7253V18.7223V18.7193V18.7163V18.7133V18.7103V18.7073V18.7043V18.7013V18.6983V18.6953V18.6923V18.6893V18.6863V18.6833V18.6803V18.6773V18.6743V18.6712V18.6682V18.6652V18.6622V18.6592V18.6562V18.6532V18.6502V18.6472V18.6442V18.6412V18.6382V18.6352V18.6322V18.6292V18.6262V18.6232V18.6202V18.6172V18.6142V18.6112V18.6082V18.6052V18.6022V18.5992V18.5962V18.5932V18.5902V18.5872V18.5842V18.5812V18.5782V18.5752V18.5722V18.5692V18.5662V18.5632V18.5602V18.5572V18.5542V18.5512V18.5482V18.5452V18.5422V18.5392V18.5362V18.5332V18.5302V18.5272V18.5242V18.5212V18.5182V18.5152V18.5122V18.5092V18.5062V18.5032V18.5002V18.4972V18.4942V18.4912V18.4882V18.4852V18.4822V18.4792V18.4762V18.4732V18.4702V18.4672V18.4642V18.4612V18.4582V18.4552V18.4522V18.4492V18.4462V18.4432V18.4402V18.4372V18.4342V18.4312V18.4282V18.4252V18.4222V18.4192V18.4162V18.4132V18.4102V18.4072V18.4042V18.4012V18.3982V18.3952V18.3922V18.3892V18.3862V18.3832V18.3802V18.3772V18.3742V18.3712V18.3682V18.3652V18.3622V18.3592V18.3562V18.3532V18.3502V18.3472V18.3442V18.3412V18.3382V18.3352V18.3322V18.3292V18.3262V18.3232V18.3202V18.3172V18.3142V18.3112V18.3082V18.3052V18.3022V18.2991V18.2961V18.2931V18.2901V18.2871V18.2841V18.2811V18.2781V18.2751V18.2721V18.2691V18.2661V18.2631V18.2601V18.2589C8.20355 18.2532 8.22294 18.2473 8.24162 18.2417C8.25771 18.2368 8.27327 18.2321 8.28811 18.2278C8.33209 18.2151 8.37259 18.2048 8.41295 18.1994L8.41306 18.1994C11.6097 17.768 14.0296 15.036 14.0493 11.8323V11.8323C14.0505 11.6239 13.9987 11.4478 13.8972 11.3192C13.7949 11.1897 13.6459 11.113 13.4629 11.0979M3.67112 15.3417C5.16778 16.8875 7.00579 17.4132 9.05862 16.7852C11.088 16.1642 12.323 14.7347 12.7253 12.6296C12.7614 12.4398 12.7744 12.2454 12.7874 12.0511C12.7935 11.9599 12.7996 11.8687 12.8081 11.7781C12.8464 11.3782 13.1135 11.1188 13.4588 11.1477M3.67112 15.3417L13.9993 11.832C14.0017 11.4313 13.8001 11.1759 13.4588 11.1477M3.67112 15.3417L3.70704 15.3069C2.78602 14.3557 2.32574 13.1869 2.29632 11.852M3.67112 15.3417L2.29632 11.852M13.4629 11.0979L13.4588 11.1477M13.4629 11.0979C13.4629 11.0979 13.4629 11.0979 13.4629 11.0979L13.4588 11.1477M2.29632 11.852C2.29143 11.6234 2.22315 11.4327 2.10523 11.2991C1.98673 11.1648 1.82102 11.0917 1.63002 11.0946L2.29632 11.852Z" fill="#5F6383" stroke="#5F6383" stroke-width="0.1"/>
</svg>
